<svg width="44" height="44" viewBox="0 0 44 44" fill="none" xmlns="http://www.w3.org/2000/svg">
<rect width="44" height="44" rx="8" fill="#FFE99E"/>
<path d="M21.6316 13.75C21.1895 13.75 20.8947 14.2 20.8947 14.5V18.25H19.4211V14.5C19.4211 14.05 19.1263 13.75 18.6842 13.75C18.2421 13.75 17.9474 14.2 17.9474 14.5V18.25H16.4737V14.5C16.4737 14.05 16.1789 13.75 15.7368 13.75C15.2947 13.75 15 14.2 15 14.5V19.45C15 20.8 16.0316 21.85 17.2105 22V32.5C17.2105 33.4 17.8 34 18.6842 34C19.5684 34 20.1579 33.4 20.1579 32.5V22C21.3368 21.85 22.3684 20.8 22.3684 19.45V14.5C22.3684 14.2 22.0737 13.75 21.6316 13.75ZM24.5789 14.5V23.5H26.0526V32.5C26.0526 33.4 26.6421 34 27.5263 34C28.4105 34 29 33.4 29 32.5V10C26.4947 10 24.5789 11.95 24.5789 14.5Z" fill="white"/>
</svg>
