<svg width="17" height="17" viewBox="0 0 17 17" fill="none" xmlns="http://www.w3.org/2000/svg">
<path d="M8.41548 16.669C7.07315 16.669 5.87997 16.4858 4.83594 16.1193C3.79616 15.7571 2.91832 15.2223 2.20241 14.5149C1.48651 13.8118 0.943182 12.9531 0.572443 11.9389C0.201705 10.9247 0.0142046 9.76562 0.00994322 8.46165C0.0142046 7.1875 0.203835 6.03906 0.578835 5.01634C0.953835 3.98935 1.50142 3.11151 2.22159 2.38281C2.94176 1.64986 3.82173 1.08736 4.86151 0.695312C5.90128 0.303267 7.08381 0.107244 8.40909 0.107244C9.65767 0.107244 10.7635 0.296874 11.7266 0.676136C12.6939 1.0554 13.5099 1.58381 14.1747 2.26136C14.8438 2.93466 15.3487 3.72301 15.6896 4.62642C16.0348 5.52557 16.2074 6.50142 16.2074 7.55398C16.2074 8.28267 16.152 8.97301 16.0412 9.625C15.9304 10.2727 15.7408 10.848 15.4723 11.3509C15.2081 11.8537 14.848 12.2543 14.392 12.5526C13.9361 12.8466 13.3651 13.0064 12.679 13.032C12.2486 13.0533 11.8714 13.0128 11.5476 12.9105C11.2237 12.8082 10.9616 12.6484 10.7614 12.4311C10.5653 12.2095 10.4418 11.9389 10.3906 11.6193H10.3139C10.2159 11.875 10.0305 12.1094 9.75781 12.3224C9.48935 12.5312 9.15696 12.6953 8.76065 12.8146C8.36435 12.9297 7.9233 12.9766 7.4375 12.9553C6.91761 12.9297 6.43608 12.8104 5.9929 12.5973C5.55398 12.38 5.17045 12.0774 4.84233 11.6896C4.51847 11.2976 4.26705 10.8246 4.08807 10.2706C3.90909 9.71662 3.8196 9.08807 3.8196 8.38494C3.8196 7.69886 3.91761 7.09375 4.11364 6.5696C4.30966 6.04545 4.57173 5.59801 4.89986 5.22727C5.23224 4.85653 5.60724 4.56676 6.02486 4.35795C6.44247 4.14489 6.87287 4.00852 7.31605 3.94886C7.77628 3.88494 8.20881 3.89134 8.61364 3.96804C9.01847 4.04474 9.35511 4.16193 9.62358 4.3196C9.89631 4.47727 10.0668 4.64986 10.1349 4.83736H10.2244V4.12145H12.0078V10.2067C12.0121 10.5263 12.0888 10.7841 12.2379 10.9801C12.3913 11.1761 12.6044 11.2741 12.8771 11.2741C13.218 11.2741 13.4929 11.1399 13.7017 10.8714C13.9148 10.5987 14.0682 10.1811 14.1619 9.61861C14.2599 9.05185 14.3068 8.32741 14.3026 7.44531C14.3068 6.72088 14.2109 6.06463 14.0149 5.47656C13.8232 4.88423 13.5504 4.36435 13.1967 3.9169C12.843 3.46946 12.419 3.09659 11.9247 2.7983C11.4347 2.49574 10.8892 2.26776 10.2884 2.11435C9.6875 1.96094 9.04617 1.88423 8.36435 1.88423C7.32031 1.88423 6.40199 2.04403 5.60938 2.36364C4.81676 2.67898 4.15199 3.12855 3.61506 3.71236C3.08239 4.29616 2.67969 4.98864 2.40696 5.78977C2.13849 6.58665 2.00426 7.46875 2.00426 8.43608C2.00426 9.47159 2.14489 10.3899 2.42614 11.1911C2.71165 11.9879 3.12926 12.6591 3.67898 13.2045C4.22869 13.75 4.90838 14.1634 5.71804 14.4446C6.53196 14.7259 7.46733 14.8665 8.52415 14.8665C9.00994 14.8665 9.48509 14.8281 9.94957 14.7514C10.4141 14.6747 10.8317 14.5852 11.2024 14.483C11.5732 14.3807 11.8587 14.2912 12.0589 14.2145L12.6023 15.8381C12.3381 15.9744 11.9801 16.1065 11.5284 16.2344C11.081 16.3622 10.5866 16.4666 10.0455 16.5476C9.50852 16.6286 8.9652 16.669 8.41548 16.669ZM7.96804 11.1207C8.50923 11.1207 8.94176 11.0163 9.26562 10.8075C9.58949 10.5945 9.82173 10.2791 9.96236 9.86151C10.103 9.44389 10.1712 8.92401 10.1669 8.30185C10.1669 7.7223 10.0945 7.24716 9.94957 6.87642C9.80469 6.50568 9.57244 6.23082 9.25284 6.05185C8.93324 5.87287 8.50923 5.78338 7.98082 5.78338C7.50355 5.78338 7.09659 5.89205 6.75994 6.10938C6.42756 6.3267 6.17188 6.62713 5.9929 7.01065C5.81818 7.38991 5.73082 7.82244 5.73082 8.30824C5.73082 8.79403 5.80114 9.25213 5.94176 9.68253C6.08665 10.1087 6.32102 10.456 6.64489 10.7244C6.97301 10.9886 7.41406 11.1207 7.96804 11.1207Z" fill="#A2B9EE"/>
</svg>
