<svg width="44" height="44" viewBox="0 0 44 44" fill="none" xmlns="http://www.w3.org/2000/svg">
<rect width="44" height="44" rx="8" fill="#FFE2E0"/>
<path d="M29.3863 12L33 18.25H28.963L26.1998 12H29.3863ZM24.2752 12L27.0384 18.25H15.9616L18.7248 12H24.2752ZM13.6137 12H16.8002L14.037 18.25H10L13.6137 12ZM10 19.5H14.021L18.9325 29.332C18.9924 29.4531 18.8247 29.5625 18.7328 29.4609L10 19.5ZM15.9177 19.5H27.0823L21.6118 31.9297C21.5719 32.0234 21.4321 32.0234 21.3922 31.9297L15.9177 19.5ZM24.0675 29.332L28.979 19.5H33L24.2672 29.457C24.1753 29.5625 24.0076 29.4531 24.0675 29.332Z" fill="white"/>
</svg>
