<svg width="18" height="19" viewBox="0 0 18 19" fill="none" xmlns="http://www.w3.org/2000/svg">
<path d="M11.3816 13.0963L12.8516 11.6263C13.0495 11.4307 13.3 11.2969 13.5726 11.241C13.8452 11.1851 14.1282 11.2095 14.3872 11.3113L16.1787 12.0266C16.4405 12.1328 16.6649 12.3141 16.8237 12.5477C16.9825 12.7813 17.0687 13.0566 17.0712 13.3391V16.6203C17.0697 16.8125 17.0293 17.0023 16.9525 17.1784C16.8757 17.3545 16.764 17.5133 16.6242 17.6451C16.4844 17.7769 16.3194 17.8791 16.1391 17.9455C15.9588 18.0118 15.7669 18.041 15.575 18.0313C3.02093 17.2503 0.487802 6.61909 0.00873959 2.55034C-0.0134988 2.35053 0.00681982 2.14829 0.0683587 1.9569C0.129898 1.76551 0.231262 1.58932 0.365784 1.43992C0.500305 1.29052 0.664935 1.1713 0.848843 1.09009C1.03275 1.00889 1.23177 0.967543 1.4328 0.968777H4.60249C4.88534 0.969614 5.16147 1.05505 5.39537 1.2141C5.62926 1.37315 5.81023 1.59854 5.91499 1.86128L6.6303 3.65284C6.73547 3.91079 6.7623 4.19401 6.70744 4.46712C6.65259 4.74023 6.51848 4.99113 6.32186 5.18846L4.85186 6.65846C4.85186 6.65846 5.69843 12.3875 11.3816 13.0963Z" fill="#A2B9EE"/>
</svg>
