<svg width="73" height="73" viewBox="0 0 73 73" fill="none" xmlns="http://www.w3.org/2000/svg">
<path d="M56.7776 60.8336H32.4443V44.6114H28.3887V60.8336H16.2221V44.6114H12.1665V60.8336C12.1665 61.9092 12.5938 62.9407 13.3543 63.7013C14.1149 64.4619 15.1465 64.8891 16.2221 64.8891H56.7776C57.8532 64.8891 58.8848 64.4619 59.6453 63.7013C60.4059 62.9407 60.8332 61.9092 60.8332 60.8336V44.6114H56.7776V60.8336Z" fill="#A2B9EE"/>
<path d="M68.5186 26.9086L60.2453 10.3619C59.9095 9.68624 59.392 9.11761 58.7507 8.71998C58.1095 8.32235 57.3701 8.11148 56.6156 8.11108H16.3845C15.63 8.11148 14.8905 8.32235 14.2493 8.71998C13.6081 9.11761 13.0905 9.68624 12.7547 10.3619L4.48141 26.9086C4.19893 27.4753 4.05309 28.1003 4.05557 28.7336V34.9791C4.05372 35.9267 4.38374 36.8451 4.98835 37.5747C5.88191 38.599 6.98551 39.4189 8.22414 39.9788C9.46278 40.5386 10.8074 40.8252 12.1667 40.8191C14.3846 40.8226 16.5349 40.0557 18.25 38.6494C19.9651 40.0564 22.1149 40.8254 24.3334 40.8254C26.5518 40.8254 28.7016 40.0564 30.4167 38.6494C32.1318 40.0564 34.2816 40.8254 36.5 40.8254C38.7184 40.8254 40.8682 40.0564 42.5834 38.6494C44.2985 40.0564 46.4483 40.8254 48.6667 40.8254C50.8851 40.8254 53.0349 40.0564 54.75 38.6494C56.6646 40.2214 59.114 40.9899 61.5834 40.7932C64.0528 40.5966 66.3498 39.4502 67.9914 37.595C68.6033 36.8681 68.9406 35.9495 68.9445 34.9994V28.7336C68.9469 28.1003 68.8011 27.4753 68.5186 26.9086ZM60.8334 36.7636C59.9672 36.7615 59.1142 36.5525 58.3452 36.1539C57.5763 35.7554 56.9137 35.1788 56.4128 34.4722L54.75 32.2011L53.1075 34.4722C52.5971 35.1679 51.93 35.7337 51.1602 36.1236C50.3905 36.5136 49.5397 36.7168 48.6768 36.7168C47.8139 36.7168 46.9632 36.5136 46.1934 36.1236C45.4237 35.7337 44.7566 35.1679 44.2461 34.4722L42.5834 32.2011L40.9409 34.4722C40.4304 35.1679 39.7633 35.7337 38.9936 36.1236C38.2238 36.5136 37.373 36.7168 36.5102 36.7168C35.6473 36.7168 34.7965 36.5136 34.0268 36.1236C33.257 35.7337 32.5899 35.1679 32.0795 34.4722L30.4167 32.2011L28.7742 34.4722C28.2637 35.1679 27.5966 35.7337 26.8269 36.1236C26.0571 36.5136 25.2064 36.7168 24.3435 36.7168C23.4806 36.7168 22.6298 36.5136 21.8601 36.1236C21.0903 35.7337 20.4232 35.1679 19.9128 34.4722L18.25 32.2011L16.5872 34.4722C16.0863 35.1788 15.4238 35.7554 14.6548 36.1539C13.8859 36.5525 13.0328 36.7615 12.1667 36.7636C11.4025 36.7729 10.6452 36.6184 9.94563 36.3106C9.24609 36.0028 8.62057 35.5488 8.11113 34.9791V28.7336L16.3845 12.1666H56.6156L64.8889 28.7133V34.9183C64.3825 35.496 63.759 35.9593 63.0598 36.2775C62.3605 36.5956 61.6016 36.7613 60.8334 36.7636Z" fill="#A2B9EE"/>
</svg>
