<svg width="293" height="203" viewBox="0 0 293 203" fill="none" xmlns="http://www.w3.org/2000/svg">
<path d="M81.1081 125.393C81.15 126.284 79.9913 126.669 79.3322 125.983L54.2095 99.8301C53.7101 99.3102 53.8851 98.5192 54.5482 98.2987L78.0741 90.4738C78.7373 90.2532 79.4796 90.7391 79.5113 91.4145L81.1081 125.393Z" fill="#FFC896"/>
<path d="M20.9686 142.053C20.8968 142.939 19.7148 143.193 19.1435 142.444L-2.61934 113.946C-3.05737 113.373 -2.79047 112.598 -2.10416 112.451L22.3926 107.202C23.0789 107.055 23.7575 107.627 23.7025 108.306L20.9686 142.053Z" fill="#FFC896"/>
<path d="M273.937 12.8374C274.361 13.6543 273.414 14.4969 272.525 14.0933L238.583 -1.31818C237.939 -1.61071 237.803 -2.39308 238.317 -2.85018L256.062 -18.6373C256.576 -19.0944 257.433 -18.9534 257.74 -18.3612L273.937 12.8374Z" fill="#FFC896"/>
<path d="M221.456 55.2117C221.803 56.0563 220.792 56.8058 219.941 56.3352L187.439 38.3701C186.816 38.0259 186.745 37.2342 187.299 36.8232L206.552 22.5455C207.106 22.1345 207.953 22.3512 208.207 22.9689L221.456 55.2117Z" fill="#FFC896"/>
<path d="M151.268 96.2753C151.477 97.1528 150.381 97.7354 149.609 97.1577L120.146 75.1194C119.572 74.69 119.613 73.8913 120.226 73.5654L141.733 62.129C142.345 61.8031 143.157 62.1483 143.312 62.8005L151.268 96.2753Z" fill="#FFC896"/>
<path d="M-41.6611 117.395C10.2916 115.362 140.222 87.2653 244.321 -8.86329" stroke="#A2B9EE" stroke-width="2" stroke-linecap="round"/>
</svg>
