<svg width="136" height="36" viewBox="0 0 136 36" fill="none" xmlns="http://www.w3.org/2000/svg">
<path d="M35.5001 7.5C36.3078 7.49995 37.0849 7.81548 37.672 8.38187C38.2591 8.94826 38.6117 9.72257 38.6574 10.546L38.6623 10.7288H43.7705C43.9554 10.7288 44.1334 10.8005 44.2684 10.9294C44.4035 11.0583 44.4857 11.2347 44.4983 11.4231C44.5109 11.6114 44.453 11.7976 44.3363 11.9441C44.2197 12.0905 44.0529 12.1863 43.8697 12.212L43.7705 12.219H42.996L41.7506 25.1539C41.6882 25.7987 41.4033 26.3999 40.9469 26.8502C40.4904 27.3004 39.8921 27.5703 39.2588 27.6117L39.0875 27.6176H31.9127C31.2778 27.6176 30.6636 27.3871 30.1798 26.9672C29.6961 26.5474 29.3743 25.9655 29.272 25.3257L29.2497 25.1529L28.0033 12.219H27.2297C27.0534 12.2189 26.883 12.1537 26.7501 12.0354C26.6172 11.917 26.5308 11.7536 26.5068 11.5752L26.5 11.4739C26.5 11.2938 26.5639 11.1198 26.6798 10.9841C26.7957 10.8485 26.9558 10.7602 27.1305 10.7357L27.2297 10.7288H32.3379C32.3379 9.87244 32.6711 9.05119 33.2641 8.44568C33.8571 7.84017 34.6614 7.5 35.5001 7.5ZM41.5297 12.219H29.4696L30.7023 25.0068C30.7296 25.2922 30.8528 25.5591 31.0509 25.7622C31.249 25.9654 31.5098 26.0923 31.7891 26.1215L31.9127 26.1275H39.0875C39.6713 26.1275 40.1665 25.7052 40.2794 25.132L40.2989 25.0068L41.5287 12.219H41.5297ZM37.2028 14.951C37.3792 14.951 37.5496 15.0162 37.6824 15.1345C37.8153 15.2529 37.9018 15.4164 37.9258 15.5947L37.9326 15.6961V22.6503C37.9325 22.8391 37.8623 23.0208 37.7361 23.1588C37.6098 23.2967 37.437 23.3806 37.2526 23.3935C37.0681 23.4063 36.8857 23.3472 36.7423 23.2281C36.5989 23.109 36.5051 22.9387 36.4799 22.7517L36.4731 22.6503V15.6961C36.4731 15.4985 36.55 15.3089 36.6868 15.1692C36.8237 15.0295 37.0093 14.951 37.2028 14.951ZM33.7974 14.951C33.9737 14.951 34.1441 15.0162 34.277 15.1345C34.4099 15.2529 34.4963 15.4164 34.5203 15.5947L34.5271 15.6961V22.6503C34.5271 22.8391 34.4568 23.0208 34.3306 23.1588C34.2044 23.2967 34.0316 23.3806 33.8471 23.3935C33.6627 23.4063 33.4803 23.3472 33.3369 23.2281C33.1934 23.109 33.0997 22.9387 33.0745 22.7517L33.0676 22.6503V15.6961C33.0676 15.4985 33.1445 15.3089 33.2814 15.1692C33.4182 15.0295 33.6038 14.951 33.7974 14.951ZM35.5001 8.9902C35.0728 8.99021 34.6611 9.15429 34.3467 9.44985C34.0324 9.74542 33.8384 10.1509 33.8032 10.5857L33.7974 10.7288H37.2028C37.2028 10.2677 37.0234 9.82545 36.7041 9.49941C36.3848 9.17337 35.9517 8.9902 35.5001 8.9902Z" fill="#FF5F5F"/>
<path d="M54.1761 24.5H49.9382V11.4091H54.3104C55.593 11.4091 56.6946 11.6712 57.6151 12.1953C58.5355 12.7152 59.2408 13.4631 59.7308 14.4389C60.2251 15.4105 60.4723 16.576 60.4723 17.9354C60.4723 19.299 60.223 20.4709 59.7244 21.451C59.2301 22.4311 58.5142 23.1854 57.5767 23.7138C56.6392 24.2379 55.5057 24.5 54.1761 24.5ZM51.9134 22.7741H54.0675C55.0646 22.7741 55.8935 22.5866 56.554 22.2116C57.2145 21.8324 57.7088 21.2848 58.0369 20.5689C58.3651 19.8487 58.5291 18.9709 58.5291 17.9354C58.5291 16.9084 58.3651 16.0369 58.0369 15.321C57.7131 14.6051 57.2294 14.0618 56.5859 13.6911C55.9425 13.3203 55.1435 13.1349 54.1889 13.1349H51.9134V22.7741ZM67.0066 24.6982C66.0392 24.6982 65.2061 24.4915 64.5073 24.0781C63.8127 23.6605 63.2757 23.0746 62.8965 22.3203C62.5215 21.5618 62.334 20.6733 62.334 19.6548C62.334 18.6491 62.5215 17.7628 62.8965 16.9957C63.2757 16.2287 63.8042 15.63 64.4817 15.1996C65.1635 14.7692 65.9604 14.554 66.8723 14.554C67.4263 14.554 67.9632 14.6456 68.4831 14.8288C69.003 15.0121 69.4696 15.2997 69.883 15.6918C70.2963 16.0838 70.6223 16.593 70.861 17.2195C71.0996 17.8416 71.2189 18.598 71.2189 19.4886V20.1662H63.4142V18.7344H69.3461C69.3461 18.2315 69.2438 17.7862 69.0392 17.3984C68.8347 17.0064 68.5471 16.6974 68.1763 16.4716C67.8098 16.2457 67.3794 16.1328 66.8851 16.1328C66.3482 16.1328 65.8794 16.2649 65.4789 16.5291C65.0826 16.7891 64.7757 17.13 64.5584 17.5518C64.3453 17.9695 64.2388 18.4233 64.2388 18.9134V20.032C64.2388 20.6882 64.3539 21.2464 64.584 21.7067C64.8184 22.1669 65.1444 22.5185 65.562 22.7614C65.9796 23 66.4675 23.1193 67.0257 23.1193C67.388 23.1193 67.7182 23.0682 68.0165 22.9659C68.3148 22.8594 68.5726 22.7017 68.79 22.4929C69.0073 22.2841 69.1735 22.0263 69.2885 21.7195L71.0975 22.0455C70.9526 22.5781 70.6926 23.0447 70.3176 23.4453C69.9469 23.8416 69.4803 24.1506 68.9178 24.3722C68.3596 24.5895 67.7225 24.6982 67.0066 24.6982ZM75.2507 11.4091V24.5H73.3395V11.4091H75.2507ZM82.0534 24.6982C81.0861 24.6982 80.253 24.4915 79.5542 24.0781C78.8596 23.6605 78.3226 23.0746 77.9434 22.3203C77.5684 21.5618 77.3809 20.6733 77.3809 19.6548C77.3809 18.6491 77.5684 17.7628 77.9434 16.9957C78.3226 16.2287 78.851 15.63 79.5286 15.1996C80.2104 14.7692 81.0073 14.554 81.9192 14.554C82.4732 14.554 83.0101 14.6456 83.53 14.8288C84.0499 15.0121 84.5165 15.2997 84.9299 15.6918C85.3432 16.0838 85.6692 16.593 85.9078 17.2195C86.1465 17.8416 86.2658 18.598 86.2658 19.4886V20.1662H78.4611V18.7344H84.3929C84.3929 18.2315 84.2907 17.7862 84.0861 17.3984C83.8816 17.0064 83.5939 16.6974 83.2232 16.4716C82.8567 16.2457 82.4263 16.1328 81.932 16.1328C81.3951 16.1328 80.9263 16.2649 80.5257 16.5291C80.1294 16.7891 79.8226 17.13 79.6053 17.5518C79.3922 17.9695 79.2857 18.4233 79.2857 18.9134V20.032C79.2857 20.6882 79.4007 21.2464 79.6309 21.7067C79.8652 22.1669 80.1912 22.5185 80.6088 22.7614C81.0265 23 81.5144 23.1193 82.0726 23.1193C82.4348 23.1193 82.7651 23.0682 83.0634 22.9659C83.3617 22.8594 83.6195 22.7017 83.8368 22.4929C84.0542 22.2841 84.2203 22.0263 84.3354 21.7195L86.1444 22.0455C85.9995 22.5781 85.7395 23.0447 85.3645 23.4453C84.9938 23.8416 84.5272 24.1506 83.9647 24.3722C83.4064 24.5895 82.7694 24.6982 82.0534 24.6982ZM92.9695 14.6818V16.2159H87.6065V14.6818H92.9695ZM89.0447 12.3295H90.956V21.6172C90.956 21.9879 91.0114 22.267 91.1222 22.4545C91.233 22.6378 91.3757 22.7635 91.5504 22.8317C91.7294 22.8956 91.9233 22.9276 92.1321 22.9276C92.2855 22.9276 92.4197 22.9169 92.5348 22.8956C92.6499 22.8743 92.7393 22.8572 92.8033 22.8445L93.1484 24.4233C93.0376 24.4659 92.88 24.5085 92.6754 24.5511C92.4709 24.598 92.2152 24.6236 91.9084 24.6278C91.4055 24.6364 90.9368 24.5469 90.5021 24.3594C90.0675 24.1719 89.7159 23.8821 89.4474 23.4901C89.179 23.098 89.0447 22.6058 89.0447 22.0135V12.3295ZM99.2097 24.6982C98.2424 24.6982 97.4093 24.4915 96.7104 24.0781C96.0158 23.6605 95.4789 23.0746 95.0996 22.3203C94.7246 21.5618 94.5371 20.6733 94.5371 19.6548C94.5371 18.6491 94.7246 17.7628 95.0996 16.9957C95.4789 16.2287 96.0073 15.63 96.6848 15.1996C97.3667 14.7692 98.1635 14.554 99.0755 14.554C99.6294 14.554 100.166 14.6456 100.686 14.8288C101.206 15.0121 101.673 15.2997 102.086 15.6918C102.499 16.0838 102.825 16.593 103.064 17.2195C103.303 17.8416 103.422 18.598 103.422 19.4886V20.1662H95.6174V18.7344H101.549C101.549 18.2315 101.447 17.7862 101.242 17.3984C101.038 17.0064 100.75 16.6974 100.379 16.4716C100.013 16.2457 99.5826 16.1328 99.0882 16.1328C98.5513 16.1328 98.0826 16.2649 97.682 16.5291C97.2857 16.7891 96.9789 17.13 96.7615 17.5518C96.5485 17.9695 96.4419 18.4233 96.4419 18.9134V20.032C96.4419 20.6882 96.557 21.2464 96.7871 21.7067C97.0215 22.1669 97.3475 22.5185 97.7651 22.7614C98.1827 23 98.6706 23.1193 99.2289 23.1193C99.5911 23.1193 99.9213 23.0682 100.22 22.9659C100.518 22.8594 100.776 22.7017 100.993 22.4929C101.21 22.2841 101.377 22.0263 101.492 21.7195L103.301 22.0455C103.156 22.5781 102.896 23.0447 102.521 23.4453C102.15 23.8416 101.683 24.1506 101.121 24.3722C100.563 24.5895 99.9256 24.6982 99.2097 24.6982Z" fill="#FF5F5F"/>
<rect x="0.75" y="0.75" width="134.5" height="34.5" rx="17.25" stroke="#FF5F5F" stroke-width="1.5"/>
</svg>
