<svg width="18" height="20" viewBox="0 0 18 20" fill="none" xmlns="http://www.w3.org/2000/svg">
<path d="M1.5 19.5C1.5 19.5 0 19.5 0 17.9167C0 16.3333 1.5 11.5833 9 11.5833C16.5 11.5833 18 16.3333 18 17.9167C18 19.5 16.5 19.5 16.5 19.5H1.5ZM9 10C10.1935 10 11.3381 9.49955 12.182 8.60876C13.0259 7.71796 13.5 6.50978 13.5 5.25C13.5 3.99022 13.0259 2.78204 12.182 1.89124C11.3381 1.00045 10.1935 0.5 9 0.5C7.80653 0.5 6.66193 1.00045 5.81802 1.89124C4.97411 2.78204 4.5 3.99022 4.5 5.25C4.5 6.50978 4.97411 7.71796 5.81802 8.60876C6.66193 9.49955 7.80653 10 9 10Z" fill="#A2B9EE"/>
</svg>
