<svg width="44" height="44" viewBox="0 0 44 44" fill="none" xmlns="http://www.w3.org/2000/svg">
<rect width="44" height="44" rx="8" fill="#F3E6FF"/>
<path d="M14.5008 14.0004C13.4776 12.5858 14.3775 10.8609 15.9307 10L22 19.9625L28.0693 10C29.6225 10.8609 30.5224 12.5858 29.4992 14.0004L23.3498 22.1771L25.9429 26.4351C26.8617 25.9857 27.9214 25.8794 28.9171 26.1369C29.9128 26.3943 30.7736 26.9972 31.3332 27.8288C31.8927 28.6604 32.1112 29.6617 31.9464 30.6391C31.7816 31.6164 31.2452 32.5004 30.4409 33.1199C29.6366 33.7395 28.6216 34.0507 27.5922 33.9933C26.5628 33.9359 25.5921 33.5139 24.868 32.8091C24.1438 32.1043 23.7176 31.1667 23.6717 30.1776C23.6259 29.1885 23.9636 28.2182 24.6197 27.4543L22 23.9692L19.3803 27.4527C20.0364 28.2166 20.3741 29.1869 20.3283 30.176C20.2824 31.1651 19.8562 32.1027 19.132 32.8075C18.4079 33.5123 17.4372 33.9343 16.4078 33.9917C15.3784 34.0491 14.3634 33.7379 13.5591 33.1183C12.7548 32.4988 12.2184 31.6148 12.0536 30.6375C11.8888 29.6601 12.1073 28.6588 12.6668 27.8272C13.2264 26.9956 14.0873 26.3927 15.0829 26.1353C16.0786 25.8778 17.1383 25.9841 18.0571 26.4335L20.6502 22.1771L14.5008 14.0004ZM18.667 30.0018C18.667 29.3652 18.4037 28.7547 17.9349 28.3046C17.4661 27.8544 16.8303 27.6016 16.1673 27.6016C15.5044 27.6016 14.8685 27.8544 14.3998 28.3046C13.931 28.7547 13.6676 29.3652 13.6676 30.0018C13.6676 30.6383 13.931 31.2488 14.3998 31.699C14.8685 32.1491 15.5044 32.402 16.1673 32.402C16.8303 32.402 17.4661 32.1491 17.9349 31.699C18.4037 31.2488 18.667 30.6383 18.667 30.0018ZM30.3324 30.0018C30.3324 29.3652 30.069 28.7547 29.6002 28.3046C29.1315 27.8544 28.4956 27.6016 27.8327 27.6016C27.1697 27.6016 26.5339 27.8544 26.0651 28.3046C25.5963 28.7547 25.333 29.3652 25.333 30.0018C25.333 30.6383 25.5963 31.2488 26.0651 31.699C26.5339 32.1491 27.1697 32.402 27.8327 32.402C28.4956 32.402 29.1315 32.1491 29.6002 31.699C30.069 31.2488 30.3324 30.6383 30.3324 30.0018Z" fill="white"/>
</svg>
