<svg width="107" height="29" viewBox="0 0 107 29" fill="none" xmlns="http://www.w3.org/2000/svg">
<path d="M10.0455 28.3835C8.03409 28.3835 6.30398 27.9574 4.85511 27.1051C3.41477 26.2443 2.30682 25.0511 1.53125 23.5256C0.764205 22 0.380682 20.2443 0.380682 18.2585C0.380682 16.2472 0.768466 14.483 1.54403 12.9659C2.32813 11.4403 3.44034 10.2514 4.88068 9.39915C6.32102 8.53835 8.03409 8.10795 10.0199 8.10795C11.733 8.10795 13.233 8.41903 14.5199 9.04119C15.8068 9.66335 16.8253 10.5369 17.5753 11.6619C18.3253 12.7869 18.7386 14.108 18.8153 15.625H13.6761C13.5313 14.6449 13.1477 13.8565 12.5256 13.2599C11.9119 12.6548 11.1065 12.3523 10.1094 12.3523C9.26562 12.3523 8.52841 12.5824 7.89773 13.0426C7.27557 13.4943 6.78977 14.1548 6.44034 15.0241C6.09091 15.8935 5.91619 16.946 5.91619 18.1818C5.91619 19.4347 6.08665 20.5 6.42756 21.3778C6.77699 22.2557 7.26705 22.9247 7.89773 23.3849C8.52841 23.8452 9.26562 24.0753 10.1094 24.0753C10.7315 24.0753 11.2898 23.9474 11.7841 23.6918C12.2869 23.4361 12.7003 23.0653 13.0241 22.5795C13.3565 22.0852 13.5739 21.4929 13.6761 20.8026H18.8153C18.7301 22.3026 18.321 23.6236 17.5881 24.7656C16.8636 25.8991 15.8622 26.7855 14.5838 27.4247C13.3054 28.0639 11.7926 28.3835 10.0455 28.3835ZM22.3022 28V8.36364H27.7482V28H22.3022ZM25.038 5.83239C24.2283 5.83239 23.5337 5.56392 22.9542 5.02699C22.3832 4.48153 22.0977 3.82954 22.0977 3.07102C22.0977 2.32102 22.3832 1.67756 22.9542 1.14062C23.5337 0.59517 24.2283 0.322442 25.038 0.322442C25.8477 0.322442 26.538 0.59517 27.109 1.14062C27.6886 1.67756 27.9783 2.32102 27.9783 3.07102C27.9783 3.82954 27.6886 4.48153 27.109 5.02699C26.538 5.56392 25.8477 5.83239 25.038 5.83239ZM32.1108 28V8.36364H37.3906V11.7898H37.5952C37.9531 10.571 38.554 9.65057 39.3977 9.02841C40.2415 8.39773 41.2131 8.08239 42.3125 8.08239C42.5852 8.08239 42.8793 8.09943 43.1946 8.13352C43.5099 8.16761 43.7869 8.21449 44.0256 8.27415V13.1065C43.7699 13.0298 43.4162 12.9616 42.9645 12.902C42.5128 12.8423 42.0994 12.8125 41.7244 12.8125C40.9233 12.8125 40.2074 12.9872 39.5767 13.3366C38.9545 13.6776 38.4602 14.1548 38.0938 14.7685C37.7358 15.3821 37.5568 16.0895 37.5568 16.8906V28H32.1108ZM54.7994 28.3835C52.788 28.3835 51.0579 27.9574 49.609 27.1051C48.1687 26.2443 47.0607 25.0511 46.2852 23.5256C45.5181 22 45.1346 20.2443 45.1346 18.2585C45.1346 16.2472 45.5224 14.483 46.2979 12.9659C47.082 11.4403 48.1942 10.2514 49.6346 9.39915C51.0749 8.53835 52.788 8.10795 54.7738 8.10795C56.4869 8.10795 57.9869 8.41903 59.2738 9.04119C60.5607 9.66335 61.5792 10.5369 62.3292 11.6619C63.0792 12.7869 63.4925 14.108 63.5692 15.625H58.43C58.2852 14.6449 57.9016 13.8565 57.2795 13.2599C56.6658 12.6548 55.8604 12.3523 54.8633 12.3523C54.0195 12.3523 53.2823 12.5824 52.6516 13.0426C52.0295 13.4943 51.5437 14.1548 51.1942 15.0241C50.8448 15.8935 50.6701 16.946 50.6701 18.1818C50.6701 19.4347 50.8406 20.5 51.1815 21.3778C51.5309 22.2557 52.021 22.9247 52.6516 23.3849C53.2823 23.8452 54.0195 24.0753 54.8633 24.0753C55.4854 24.0753 56.0437 23.9474 56.538 23.6918C57.0408 23.4361 57.4542 23.0653 57.7781 22.5795C58.1104 22.0852 58.3278 21.4929 58.43 20.8026H63.5692C63.484 22.3026 63.0749 23.6236 62.342 24.7656C61.6175 25.8991 60.6161 26.7855 59.3377 27.4247C58.0593 28.0639 56.5465 28.3835 54.7994 28.3835ZM79.6484 19.6392V8.36364H85.0945V28H79.8658V24.4332H79.6612C79.218 25.5838 78.4808 26.5085 77.4496 27.2074C76.4268 27.9062 75.1783 28.2557 73.7038 28.2557C72.3913 28.2557 71.2365 27.9574 70.2393 27.3608C69.2422 26.7642 68.4624 25.9162 67.8999 24.8168C67.3459 23.7173 67.0646 22.4006 67.0561 20.8665V8.36364H72.5021V19.8949C72.5107 21.054 72.8217 21.9702 73.4354 22.6435C74.049 23.3168 74.8714 23.6534 75.9027 23.6534C76.5589 23.6534 77.1726 23.5043 77.7436 23.206C78.3146 22.8991 78.7749 22.4474 79.1243 21.8509C79.4822 21.2543 79.657 20.517 79.6484 19.6392ZM105.789 13.9631L100.803 14.2699C100.718 13.8437 100.534 13.4602 100.253 13.1193C99.9719 12.7699 99.6012 12.4929 99.141 12.2884C98.6893 12.0753 98.1481 11.9688 97.5174 11.9688C96.6737 11.9688 95.962 12.1477 95.3825 12.5057C94.8029 12.8551 94.5131 13.3239 94.5131 13.9119C94.5131 14.3807 94.7006 14.777 95.0756 15.1009C95.4506 15.4247 96.0941 15.6847 97.006 15.8807L100.56 16.5966C102.469 16.9886 103.892 17.6193 104.83 18.4886C105.767 19.358 106.236 20.5 106.236 21.9148C106.236 23.2017 105.857 24.331 105.098 25.3026C104.348 26.2741 103.317 27.0327 102.005 27.5781C100.701 28.1151 99.1964 28.3835 97.4918 28.3835C94.8924 28.3835 92.8214 27.8423 91.2788 26.7599C89.7447 25.669 88.8455 24.1861 88.5813 22.3111L93.9379 22.0298C94.0998 22.8224 94.4918 23.4276 95.114 23.8452C95.7362 24.2543 96.533 24.4588 97.5046 24.4588C98.4592 24.4588 99.2262 24.2756 99.8058 23.9091C100.394 23.5341 100.692 23.0526 100.701 22.4645C100.692 21.9702 100.483 21.5653 100.074 21.25C99.6651 20.9261 99.0344 20.679 98.1822 20.5085L94.7816 19.831C92.864 19.4474 91.4364 18.7827 90.4989 17.8366C89.57 16.8906 89.1055 15.6847 89.1055 14.2188C89.1055 12.9574 89.4464 11.8707 90.1282 10.9588C90.8185 10.0469 91.7859 9.34375 93.0302 8.84943C94.283 8.35511 95.7489 8.10795 97.4279 8.10795C99.908 8.10795 101.86 8.6321 103.283 9.6804C104.715 10.7287 105.55 12.1562 105.789 13.9631Z" fill="url(#paint0_linear_98_2608)"/>
<defs>
<linearGradient id="paint0_linear_98_2608" x1="18.2545" y1="-7" x2="114.694" y2="16.3472" gradientUnits="userSpaceOnUse">
<stop stop-color="#A2B9EE"/>
<stop offset="1" stop-color="#A2DCEE"/>
</linearGradient>
</defs>
</svg>
