<svg width="26" height="22" viewBox="0 0 26 22" fill="none" xmlns="http://www.w3.org/2000/svg">
<path d="M20.7776 20.3334H11.4443V14.1111H9.88873V20.3334H5.22206V14.1111H3.6665V20.3334C3.6665 20.7459 3.83039 21.1416 4.12212 21.4333C4.41384 21.725 4.8095 21.8889 5.22206 21.8889H20.7776C21.1902 21.8889 21.5858 21.725 21.8776 21.4333C22.1693 21.1416 22.3332 20.7459 22.3332 20.3334V14.1111H20.7776V20.3334Z" fill="#CECECE"/>
<path d="M25.281 7.32108L22.1077 0.974418C21.9789 0.715252 21.7803 0.49715 21.5344 0.344635C21.2885 0.192119 21.0048 0.111238 20.7154 0.111084H5.28432C4.99492 0.111238 4.7113 0.192119 4.46536 0.344635C4.21941 0.49715 4.02088 0.715252 3.8921 0.974418L0.718765 7.32108C0.610418 7.53847 0.55448 7.7782 0.555432 8.02108V10.4166C0.554722 10.7801 0.681306 11.1323 0.91321 11.4122C1.25594 11.8051 1.67924 12.1196 2.15434 12.3343C2.62943 12.549 3.14518 12.659 3.66654 12.6566C4.51725 12.658 5.34202 12.3638 5.99988 11.8244C6.65773 12.3641 7.48232 12.6591 8.33321 12.6591C9.18411 12.6591 10.0087 12.3641 10.6665 11.8244C11.3244 12.3641 12.149 12.6591 12.9999 12.6591C13.8508 12.6591 14.6754 12.3641 15.3332 11.8244C15.9911 12.3641 16.8156 12.6591 17.6665 12.6591C18.5174 12.6591 19.342 12.3641 19.9999 11.8244C20.7342 12.4274 21.6737 12.7221 22.6209 12.6467C23.5681 12.5713 24.4491 12.1315 25.0788 11.42C25.3135 11.1412 25.4429 10.7888 25.4443 10.4244V8.02108C25.4453 7.7782 25.3893 7.53847 25.281 7.32108ZM22.3332 11.1011C22.001 11.1003 21.6738 11.0201 21.3789 10.8673C21.0839 10.7144 20.8298 10.4932 20.6377 10.2222L19.9999 9.35108L19.3699 10.2222C19.1741 10.489 18.9182 10.706 18.623 10.8556C18.3277 11.0052 18.0014 11.0831 17.6704 11.0831C17.3395 11.0831 17.0131 11.0052 16.7179 10.8556C16.4226 10.706 16.1668 10.489 15.971 10.2222L15.3332 9.35108L14.7032 10.2222C14.5074 10.489 14.2516 10.706 13.9563 10.8556C13.6611 11.0052 13.3347 11.0831 13.0038 11.0831C12.6728 11.0831 12.3465 11.0052 12.0512 10.8556C11.756 10.706 11.5001 10.489 11.3043 10.2222L10.6665 9.35108L10.0365 10.2222C9.84076 10.489 9.58488 10.706 9.28964 10.8556C8.99439 11.0052 8.66807 11.0831 8.3371 11.0831C8.00613 11.0831 7.67981 11.0052 7.38456 10.8556C7.08931 10.706 6.83344 10.489 6.63765 10.2222L5.99988 9.35108L5.3621 10.2222C5.16996 10.4932 4.91584 10.7144 4.6209 10.8673C4.32596 11.0201 3.99875 11.1003 3.66654 11.1011C3.37343 11.1046 3.08294 11.0454 2.81463 10.9273C2.54632 10.8093 2.30639 10.6352 2.11099 10.4166V8.02108L5.28432 1.66664H20.7154L23.8888 8.01331V10.3933C23.6945 10.6149 23.4554 10.7926 23.1872 10.9146C22.919 11.0367 22.6279 11.1002 22.3332 11.1011Z" fill="#CECECE"/>
</svg>
