<svg width="28" height="28" viewBox="0 0 28 28" fill="none" xmlns="http://www.w3.org/2000/svg">
<path d="M14.0137 0.875C10.5706 0.876836 7.26605 2.23158 4.8125 4.64718V0.875H3.0625V7.875H10.0625V6.125H5.81257C6.87336 5.01932 8.1466 4.13936 9.55588 3.53792C10.9652 2.93648 12.4814 2.62596 14.0137 2.625C20.2781 2.625 25.375 7.72187 25.375 13.9863C25.375 20.2508 20.2781 25.3477 14.0137 25.3477C7.74922 25.3477 2.65234 20.2508 2.65234 13.9863H0.902344C0.902341 16.5795 1.6713 19.1145 3.112 21.2706C4.55269 23.4268 6.6004 25.1073 8.99618 26.0996C11.392 27.092 14.0282 27.3516 16.5716 26.8457C19.1149 26.3398 21.4511 25.0911 23.2848 23.2574C25.1184 21.4238 26.3672 19.0876 26.8731 16.5442C27.379 14.0009 27.1193 11.3646 26.127 8.96884C25.1346 6.57305 23.4541 4.52534 21.2979 3.08465C19.1418 1.64396 16.6068 0.874997 14.0137 0.875Z" fill="#CECECE"/>
<path d="M13.125 6.12231L13.0957 15.75H20.125V14H14.8511L14.875 6.12767L13.125 6.12231Z" fill="#CECECE"/>
</svg>
