<svg width="44" height="44" viewBox="0 0 44 44" fill="none" xmlns="http://www.w3.org/2000/svg">
<rect width="44" height="44" rx="8" fill="#FFC896"/>
<path d="M14 30.5C14 30.8978 14.158 31.2794 14.4393 31.5607C14.7206 31.842 15.1022 32 15.5 32H17V12H15.5C15.1022 12 14.7206 12.158 14.4393 12.4393C14.158 12.7206 14 13.1022 14 13.5V30.5ZM18 12V32H28C28.5304 32 29.0391 31.7893 29.4142 31.4142C29.7893 31.0391 30 30.5304 30 30V14C30 13.4696 29.7893 12.9609 29.4142 12.5858C29.0391 12.2107 28.5304 12 28 12H18ZM25 20H20V19H25V20ZM28 18H20V17H28V18Z" fill="white"/>
</svg>
