<svg width="62" height="33" viewBox="0 0 62 33" fill="none" xmlns="http://www.w3.org/2000/svg">
<path d="M38.7776 20.3334H29.4443V14.1111H27.8887V20.3334H23.2221V14.1111H21.6665V20.3334C21.6665 20.7459 21.8304 21.1416 22.1221 21.4333C22.4138 21.725 22.8095 21.8889 23.2221 21.8889H38.7776C39.1902 21.8889 39.5858 21.725 39.8776 21.4333C40.1693 21.1416 40.3332 20.7459 40.3332 20.3334V14.1111H38.7776V20.3334Z" fill="#456FD0"/>
<path d="M43.281 7.32108L40.1077 0.974418C39.9789 0.715252 39.7803 0.49715 39.5344 0.344635C39.2885 0.192119 39.0048 0.111238 38.7154 0.111084H23.2843C22.9949 0.111238 22.7113 0.192119 22.4654 0.344635C22.2194 0.49715 22.0209 0.715252 21.8921 0.974418L18.7188 7.32108C18.6104 7.53847 18.5545 7.7782 18.5554 8.02108V10.4166C18.5547 10.7801 18.6813 11.1323 18.9132 11.4122C19.2559 11.8051 19.6792 12.1196 20.1543 12.3343C20.6294 12.549 21.1452 12.659 21.6665 12.6566C22.5173 12.658 23.342 12.3638 23.9999 11.8244C24.6577 12.3641 25.4823 12.6591 26.3332 12.6591C27.1841 12.6591 28.0087 12.3641 28.6665 11.8244C29.3244 12.3641 30.149 12.6591 30.9999 12.6591C31.8508 12.6591 32.6754 12.3641 33.3332 11.8244C33.9911 12.3641 34.8156 12.6591 35.6665 12.6591C36.5174 12.6591 37.342 12.3641 37.9999 11.8244C38.7342 12.4274 39.6737 12.7221 40.6209 12.6467C41.5681 12.5713 42.4491 12.1315 43.0788 11.42C43.3135 11.1412 43.4429 10.7888 43.4443 10.4244V8.02108C43.4453 7.7782 43.3893 7.53847 43.281 7.32108ZM40.3332 11.1011C40.001 11.1003 39.6738 11.0201 39.3789 10.8673C39.0839 10.7144 38.8298 10.4932 38.6377 10.2222L37.9999 9.35108L37.3699 10.2222C37.1741 10.489 36.9182 10.706 36.623 10.8556C36.3277 11.0052 36.0014 11.0831 35.6704 11.0831C35.3395 11.0831 35.0131 11.0052 34.7179 10.8556C34.4226 10.706 34.1668 10.489 33.971 10.2222L33.3332 9.35108L32.7032 10.2222C32.5074 10.489 32.2516 10.706 31.9563 10.8556C31.6611 11.0052 31.3347 11.0831 31.0038 11.0831C30.6728 11.0831 30.3465 11.0052 30.0512 10.8556C29.756 10.706 29.5001 10.489 29.3043 10.2222L28.6665 9.35108L28.0365 10.2222C27.8408 10.489 27.5849 10.706 27.2896 10.8556C26.9944 11.0052 26.6681 11.0831 26.3371 11.0831C26.0061 11.0831 25.6798 11.0052 25.3846 10.8556C25.0893 10.706 24.8334 10.489 24.6377 10.2222L23.9999 9.35108L23.3621 10.2222C23.17 10.4932 22.9158 10.7144 22.6209 10.8673C22.326 11.0201 21.9988 11.1003 21.6665 11.1011C21.3734 11.1046 21.0829 11.0454 20.8146 10.9273C20.5463 10.8093 20.3064 10.6352 20.111 10.4166V8.02108L23.2843 1.66664H38.7154L41.8888 8.01331V10.3933C41.6945 10.6149 41.4554 10.7926 41.1872 10.9146C40.919 11.0367 40.6279 11.1002 40.3332 11.1011Z" fill="#456FD0"/>
<path d="M0 31.5H61.5183" stroke="#456FD0" stroke-width="3"/>
</svg>
