<svg width="44" height="44" viewBox="0 0 44 44" fill="none" xmlns="http://www.w3.org/2000/svg">
<rect width="44" height="44" rx="8" fill="#DFF8BE"/>
<path d="M34.9838 15.3824C35.0302 15.5529 34.9717 15.7412 34.8738 15.8882L31.7516 20.6059C31.6357 20.7882 31.3925 20.8882 31.1891 20.8882C31.1312 20.8882 30.969 20.8765 30.9059 20.8588L28.4035 20.2353V31.4118C28.4035 31.7529 28.166 32 27.8242 32H15.6598C15.3181 32 15.0806 31.7529 15.0806 31.4118V20.2353L12.8331 20.8647C12.5724 20.9471 12.3465 20.8412 12.2017 20.6118L9.10266 15.9059C9.00418 15.7529 8.97522 15.5824 9.02156 15.4118C9.06211 15.2353 9.18375 15.1176 9.34015 15.0353L15.6598 12H18.5561C18.8979 12 19.1354 12.2412 19.1354 12.5882C19.1354 13.8 20.8094 14.6588 22.0027 14.6588C23.196 14.6588 24.928 13.8059 24.928 12.5882C24.928 12.2471 25.1654 12 25.5072 12H28.4035L34.6595 14.9765C34.8217 15.0588 34.9375 15.2059 34.9838 15.3824Z" fill="white"/>
</svg>
