<svg width="44" height="44" viewBox="0 0 44 44" fill="none" xmlns="http://www.w3.org/2000/svg">
<rect width="44" height="44" rx="8" fill="#BCE3FF"/>
<path d="M30 12H14C13.4696 12 12.9609 12.2107 12.5858 12.5858C12.2107 12.9609 12 13.4696 12 14V26C12 26.5304 12.2107 27.0391 12.5858 27.4142C12.9609 27.7893 13.4696 28 14 28H20V30H17V32H27V30H24V28H30C30.5304 28 31.0391 27.7893 31.4142 27.4142C31.7893 27.0391 32 26.5304 32 26V14C32 13.4696 31.7893 12.9609 31.4142 12.5858C31.0391 12.2107 30.5304 12 30 12ZM30 26H14V14H30V26Z" fill="white"/>
</svg>
