<svg width="286" height="108" viewBox="0 0 286 108" fill="none" xmlns="http://www.w3.org/2000/svg">
<path d="M21.4773 86.2315C17.5663 86.2315 14.2022 85.4029 11.3849 83.7457C8.58428 82.0719 6.42992 79.7518 4.92188 76.7854C3.4304 73.8191 2.68466 70.4052 2.68466 66.544C2.68466 62.633 3.43868 59.2026 4.94673 56.2528C6.47135 53.2864 8.634 50.9746 11.4347 49.3174C14.2353 47.6436 17.5663 46.8067 21.4276 46.8067C24.7585 46.8067 27.6752 47.4116 30.1776 48.6214C32.6799 49.8311 34.6603 51.5298 36.1186 53.7173C37.5769 55.9048 38.3807 58.4734 38.5298 61.4232H28.5369C28.2552 59.5174 27.5095 57.9845 26.2997 56.8245C25.1065 55.6479 23.5405 55.0596 21.6016 55.0596C19.9609 55.0596 18.5275 55.507 17.3011 56.4019C16.0914 57.2802 15.1468 58.5646 14.4673 60.2549C13.7879 61.9452 13.4482 63.9919 13.4482 66.3948C13.4482 68.8309 13.7796 70.9024 14.4425 72.6093C15.1219 74.3162 16.0748 75.6171 17.3011 76.512C18.5275 77.4069 19.9609 77.8543 21.6016 77.8543C22.8113 77.8543 23.8968 77.6057 24.858 77.1086C25.8357 76.6114 26.6394 75.8905 27.2692 74.9459C27.9155 73.9848 28.3381 72.833 28.5369 71.4907H38.5298C38.3641 74.4074 37.5687 76.976 36.1435 79.1967C34.7349 81.4007 32.7876 83.1242 30.3018 84.3671C27.8161 85.61 24.8745 86.2315 21.4773 86.2315ZM45.3098 85.4857V47.3039H55.8993V85.4857H45.3098ZM50.6294 42.382C49.0551 42.382 47.7045 41.86 46.5776 40.816C45.4673 39.7554 44.9121 38.4876 44.9121 37.0127C44.9121 35.5544 45.4673 34.3032 46.5776 33.2592C47.7045 32.1985 49.0551 31.6682 50.6294 31.6682C52.2038 31.6682 53.5461 32.1985 54.6564 33.2592C55.7833 34.3032 56.3468 35.5544 56.3468 37.0127C56.3468 38.4876 55.7833 39.7554 54.6564 40.816C53.5461 41.86 52.2038 42.382 50.6294 42.382ZM64.3821 85.4857V47.3039H74.6484V53.9658H75.0462C75.7422 51.596 76.9105 49.8063 78.5511 48.5965C80.1918 47.3702 82.081 46.757 84.2188 46.757C84.7491 46.757 85.3208 46.7902 85.9339 46.8565C86.5471 46.9227 87.0857 47.0139 87.5497 47.1299V56.5262C87.0526 56.3771 86.3648 56.2445 85.4865 56.1285C84.6082 56.0125 83.8045 55.9545 83.0753 55.9545C81.5175 55.9545 80.1255 56.2942 78.8991 56.9736C77.6894 57.6365 76.7282 58.5646 76.0156 59.7577C75.3196 60.9509 74.9716 62.3264 74.9716 63.8842V85.4857H64.3821ZM108.499 86.2315C104.588 86.2315 101.224 85.4029 98.4064 83.7457C95.6058 82.0719 93.4514 79.7518 91.9434 76.7854C90.4519 73.8191 89.7061 70.4052 89.7061 66.544C89.7061 62.633 90.4602 59.2026 91.9682 56.2528C93.4928 53.2864 95.6555 50.9746 98.4561 49.3174C101.257 47.6436 104.588 46.8067 108.449 46.8067C111.78 46.8067 114.697 47.4116 117.199 48.6214C119.701 49.8311 121.682 51.5298 123.14 53.7173C124.598 55.9048 125.402 58.4734 125.551 61.4232H115.558C115.277 59.5174 114.531 57.9845 113.321 56.8245C112.128 55.6479 110.562 55.0596 108.623 55.0596C106.982 55.0596 105.549 55.507 104.323 56.4019C103.113 57.2802 102.168 58.5646 101.489 60.2549C100.809 61.9452 100.47 63.9919 100.47 66.3948C100.47 68.8309 100.801 70.9024 101.464 72.6093C102.143 74.3162 103.096 75.6171 104.323 76.512C105.549 77.4069 106.982 77.8543 108.623 77.8543C109.833 77.8543 110.918 77.6057 111.879 77.1086C112.857 76.6114 113.661 75.8905 114.291 74.9459C114.937 73.9848 115.36 72.833 115.558 71.4907H125.551C125.386 74.4074 124.59 76.976 123.165 79.1967C121.756 81.4007 119.809 83.1242 117.323 84.3671C114.838 85.61 111.896 86.2315 108.499 86.2315ZM156.816 69.2286V47.3039H167.406V85.4857H157.239V78.5503H156.841C155.98 80.7876 154.546 82.5856 152.541 83.9445C150.552 85.3034 148.124 85.9829 145.257 85.9829C142.705 85.9829 140.46 85.4029 138.521 84.2428C136.582 83.0828 135.066 81.4339 133.972 79.2961C132.895 77.1583 132.348 74.5979 132.331 71.615V47.3039H142.921V69.7258C142.937 71.9796 143.542 73.761 144.735 75.0702C145.929 76.3794 147.528 77.034 149.533 77.034C150.809 77.034 152.002 76.744 153.113 76.164C154.223 75.5674 155.118 74.6891 155.797 73.529C156.493 72.369 156.833 70.9355 156.816 69.2286ZM207.645 58.1917L197.95 58.7883C197.784 57.9597 197.428 57.2139 196.881 56.5511C196.334 55.8716 195.613 55.333 194.719 54.9353C193.84 54.521 192.788 54.3138 191.562 54.3138C189.921 54.3138 188.537 54.6619 187.41 55.3579C186.283 56.0373 185.72 56.9488 185.72 58.0923C185.72 59.0037 186.085 59.7743 186.814 60.404C187.543 61.0338 188.794 61.5392 190.567 61.9204L197.478 63.3124C201.19 64.0747 203.957 65.3011 205.78 66.9914C207.603 68.6817 208.515 70.9024 208.515 73.6533C208.515 76.1557 207.777 78.3515 206.302 80.2407C204.844 82.1299 202.839 83.6048 200.287 84.6654C197.751 85.7094 194.826 86.2315 191.512 86.2315C186.457 86.2315 182.43 85.1791 179.431 83.0745C176.448 80.9533 174.7 78.0698 174.186 74.4239L184.601 73.8771C184.916 75.4182 185.679 76.5949 186.888 77.4069C188.098 78.2023 189.648 78.6001 191.537 78.6001C193.393 78.6001 194.884 78.2438 196.011 77.5312C197.155 76.802 197.735 75.8657 197.751 74.7222C197.735 73.761 197.329 72.9739 196.533 72.3607C195.738 71.731 194.511 71.2504 192.854 70.919L186.242 69.6015C182.513 68.8557 179.738 67.5631 177.915 65.7236C176.108 63.8842 175.205 61.5392 175.205 58.6888C175.205 56.2362 175.868 54.1233 177.194 52.3501C178.536 50.5769 180.417 49.2097 182.836 48.2485C185.273 47.2873 188.123 46.8067 191.388 46.8067C196.21 46.8067 200.005 47.8259 202.773 49.8643C205.557 51.9026 207.181 54.6784 207.645 58.1917Z" fill="url(#paint0_linear_192_2483)"/>
<path fill-rule="evenodd" clip-rule="evenodd" d="M248.201 6.04813C250.678 3.73265 254.36 0.93193 258.826 0.188512C263.229 -0.544293 268.563 0.696685 274.443 6.80974C281.629 14.2793 279.984 23.8177 274.74 30.4683C272.121 33.7907 268.641 36.3295 265.016 37.4741C261.406 38.614 257.676 38.3691 254.439 36.1776C254.087 35.9388 253.605 36.0275 253.363 36.3758C253.121 36.724 253.211 37.1999 253.564 37.4387C257.262 39.9434 261.507 40.1876 265.488 38.9306C269.455 37.6781 273.182 34.9338 275.962 31.4077C277.681 29.2278 279.052 26.7252 279.892 24.0657C282.957 25.8935 286.006 29.5801 286 35.242C285.994 41.2447 282.555 49.635 271.692 60.5225C271.65 60.5625 271.612 60.6074 271.58 60.657C271.552 60.6997 271.529 60.7447 271.51 60.791C271.498 60.8149 271.428 60.9211 271.177 61.066C270.928 61.2097 270.578 61.3463 270.151 61.4574C269.296 61.6796 268.249 61.769 267.354 61.6806C267.057 61.6512 266.79 61.6036 266.559 61.5407C266.28 61.3217 265.994 61.1105 265.703 60.9075C265.705 60.8592 265.714 60.8009 265.735 60.7297C265.807 60.4871 266.009 60.1228 266.463 59.6292C269.89 55.9065 269.086 52.0616 268.139 50.5033C267.919 50.1412 267.443 50.0238 267.077 50.241C266.71 50.4583 266.591 50.9279 266.811 51.29C267.45 52.3407 268.231 55.4356 265.317 58.6006C264.863 59.0934 264.53 59.5737 264.339 60.0443C262.603 59.0483 260.69 58.3255 258.659 57.9345C258.663 57.9121 258.668 57.8896 258.672 57.8669C258.805 57.2219 259.088 56.5576 259.416 55.9953C259.714 55.5485 260.1 54.8229 260.333 54.024C260.562 53.2381 260.688 52.2298 260.248 51.3493C260.215 51.2817 260.174 51.2207 260.125 51.1671C259.968 50.9959 259.742 50.9046 259.512 50.9154C259.439 50.9189 259.366 50.9325 259.295 50.9571C258.578 51.1897 257.717 51.0813 256.851 50.7972C255.997 50.5171 255.243 50.1018 254.785 49.8435L254.769 49.8341C254.398 49.6343 253.934 49.7653 253.726 50.126L253.716 50.1433C253.071 51.3113 252.731 52.5163 252.484 53.6244C252.392 54.0339 252.316 54.417 252.243 54.7798L252.243 54.78L252.243 54.7817C252.111 55.4416 251.992 56.0346 251.823 56.5979C251.644 57.1912 251.43 57.6637 251.141 58.0322C249.964 58.2909 248.83 58.6613 247.749 59.1319C246.421 59.122 245.349 59.0459 244.51 58.8687C243.604 58.6773 243.062 58.387 242.748 58.0282C242.449 57.6859 242.262 57.1708 242.31 56.3078C242.359 55.4309 242.65 54.2679 243.234 52.7305C245.291 47.3151 242.374 43.6271 240.561 42.4335C240.205 42.1993 239.725 42.2942 239.487 42.6456C239.25 42.9969 239.346 43.4717 239.702 43.7059C241.059 44.5995 243.532 47.5905 241.784 52.1936C241.179 53.787 240.826 55.1188 240.764 56.223C240.753 56.4261 240.751 56.6237 240.76 56.8156C236.433 57.0215 234.443 56.0664 233.597 55.0489C232.732 54.0086 232.846 52.6288 233.31 51.5985L233.322 51.57L233.333 51.5406C235.563 45.2495 235.508 41.6347 234.297 39.5144C233.08 37.3838 230.849 37.0372 229.618 36.8458L229.554 36.8359L229.54 36.8338C229.439 36.8196 229.34 36.8255 229.246 36.8485C229.147 36.8726 229.051 36.9166 228.965 36.9812C223.214 41.2784 218.552 42.2965 215.11 41.928C211.654 41.5579 209.331 39.7812 208.265 38.3181L208.252 38.3006L208.238 38.2838C206.606 36.2925 205.929 34.7127 205.786 33.5313C205.646 32.3786 206.006 31.5749 206.549 31.0384C207.113 30.4812 207.927 30.1636 208.739 30.1176C209.563 30.071 210.261 30.307 210.655 30.6959C211.877 31.9028 212.778 32.495 213.6 32.745C214.224 32.9344 214.809 32.9072 215.244 32.887L215.244 32.887C215.362 32.8816 215.468 32.8766 215.562 32.8766C215.754 32.8766 215.946 32.8295 216.102 32.7801C216.27 32.7269 216.455 32.6523 216.65 32.5611C217.042 32.3784 217.514 32.1118 218.042 31.7631C219.1 31.0645 220.417 30.0137 221.816 28.5827C224.614 25.7185 227.751 21.3145 229.772 15.1275C231.263 10.5633 234.635 8.16564 238.198 6.98866C241.781 5.80483 245.503 5.88078 247.509 6.25014C247.632 6.27455 247.761 6.26897 247.883 6.23307C247.98 6.20459 248.072 6.15702 248.154 6.09021C248.17 6.07684 248.186 6.06281 248.201 6.04813ZM242.509 27.8072C242.509 28.6717 241.8 29.3726 240.924 29.3726C240.049 29.3726 239.339 28.6717 239.339 27.8072C239.339 26.9426 240.049 26.2418 240.924 26.2418C241.8 26.2418 242.509 26.9426 242.509 27.8072Z" fill="#A2B9EE"/>
<path fill-rule="evenodd" clip-rule="evenodd" d="M255.034 92.5714C264.409 92.5714 272.009 84.973 272.009 75.6C272.009 72.0234 270.902 68.7053 269.013 65.9691C269.051 66.1136 269.025 66.2768 268.906 66.4164L265.078 70.8817C264.947 71.0345 264.92 71.2508 265.01 71.4308L267.696 76.8027C267.918 77.2452 267.431 77.7059 267.001 77.4605L262.474 74.8738C262.297 74.7728 262.076 74.789 261.916 74.9148L257.309 78.537C256.981 78.7948 256.5 78.5611 256.5 78.1439V72.7232C256.5 72.526 256.384 72.3472 256.204 72.2667L251.144 70.0048C250.696 69.8044 250.775 69.1452 251.258 69.0566L257.578 67.8967C257.815 67.8532 257.987 67.6463 257.987 67.4049V61.0205C257.987 60.5035 258.676 60.3265 258.925 60.7794L262.589 67.4354C262.71 67.6561 262.977 67.752 263.211 67.6592L268.342 65.6261C268.515 65.5576 268.679 65.5879 268.804 65.6732C265.721 61.4057 260.702 58.6285 255.034 58.6285C245.659 58.6285 238.059 66.2269 238.059 75.6C238.059 84.973 245.659 92.5714 255.034 92.5714Z" fill="#A6D9FF"/>
<defs>
<linearGradient id="paint0_linear_192_2483" x1="37.2725" y1="17.4857" x2="223.917" y2="62.7631" gradientUnits="userSpaceOnUse">
<stop stop-color="#A2B9EE"/>
<stop offset="1" stop-color="#A2DCEE"/>
</linearGradient>
</defs>
</svg>
