<svg width="119" height="119" viewBox="0 0 119 119" fill="none" xmlns="http://www.w3.org/2000/svg">
<circle cx="59.5" cy="59.5" r="59.5" fill="#EAF0FF"/>
<ellipse cx="62.5" cy="88" rx="24.5" ry="7" fill="#CAD9FD"/>
<path fill-rule="evenodd" clip-rule="evenodd" d="M66.5012 29.1877C62.126 29.9273 58.5312 32.7103 56.1272 34.9934L56.1212 34.999C55.9915 35.1223 55.8195 35.1731 55.655 35.1528C55.645 35.1515 55.6349 35.15 55.6249 35.1482L55.6128 35.146C53.6481 34.7779 50.0143 34.7026 46.5128 35.8773C43.0271 37.0467 39.7134 39.4364 38.2495 43.9878C36.3027 50.0406 33.2816 54.3461 30.5902 57.1436C29.2452 58.5416 27.9796 59.566 26.9667 60.2453C26.461 60.5845 26.012 60.8418 25.6426 61.0168C25.4581 61.1042 25.2866 61.1743 25.1329 61.2236C24.9883 61.2701 24.8233 61.3102 24.6637 61.3102C24.5614 61.3102 24.4495 61.3154 24.3294 61.3209C23.9091 61.3404 23.3871 61.3645 22.8167 61.1885C22.0608 60.9553 21.2138 60.3968 20.0386 59.2182C19.6124 58.7908 18.8819 58.5513 18.0516 58.599C17.2296 58.6463 16.3995 58.9725 15.8189 59.5547C15.2538 60.1215 14.889 60.9652 15.0306 62.1489C15.1748 63.3543 15.8498 64.9371 17.4411 66.9085L17.4513 66.9212L17.4608 66.9344C18.5206 68.4106 20.8116 70.1843 24.2079 70.5536C27.593 70.9217 32.1471 69.9007 37.7364 65.6592L37.7384 65.6577C37.8682 65.5592 38.0262 65.5244 38.1752 65.5479L38.2276 65.5561C39.4228 65.745 41.5062 66.0742 42.6419 68.0939C43.7738 70.1068 43.8516 73.5935 41.6963 79.7694L41.6885 79.7916L41.679 79.8131C41.2157 80.8585 41.0863 82.2926 41.9813 83.3857C42.8651 84.4649 44.9054 85.4148 49.2322 85.1764C49.213 84.9412 49.2111 84.6952 49.2253 84.4385C49.284 83.3793 49.6187 82.0896 50.2018 80.5301C51.9279 75.9137 49.4851 72.8946 48.1204 71.9822C47.8561 71.8055 47.7846 71.4473 47.9609 71.1822C48.1371 70.917 48.4942 70.8454 48.7586 71.0222C50.4618 72.1609 53.2343 75.7058 51.279 80.9352C50.7116 82.4525 50.4232 83.6147 50.374 84.5025C50.3254 85.3798 50.512 85.9359 50.8402 86.3169C51.1791 86.7105 51.7457 87.0077 52.6403 87.1995C53.5325 87.3909 54.6822 87.4632 56.1091 87.4632C57.4672 87.4632 58.2818 87.1684 58.8111 86.7427C59.3443 86.314 59.6708 85.6872 59.9199 84.847C60.0861 84.2861 60.2036 83.6897 60.3326 83.035L60.333 83.0326C60.4029 82.6777 60.4763 82.3055 60.5626 81.9126C60.8008 80.8285 61.1264 79.6613 61.7398 78.5334L61.7454 78.5234C61.9004 78.2514 62.2448 78.1525 62.5203 78.3032L62.5302 78.3087C62.974 78.5631 63.7179 78.9803 64.5641 79.2621C65.4181 79.5466 66.2957 79.6656 67.0422 79.4181L67.0482 79.4161C67.3155 79.3264 67.6149 79.4452 67.7446 79.7054L67.7477 79.7118C68.1475 80.5198 68.0393 81.4605 67.8211 82.2194C67.6004 82.9873 67.2337 83.6865 66.9526 84.1131C66.6277 84.6789 66.3442 85.3514 66.2107 86.0097C66.075 86.6794 66.1058 87.275 66.335 87.7335C66.5521 88.1679 66.9933 88.5712 67.886 88.7827C68.7652 88.991 70.0556 89.0038 71.9 88.6663C71.9121 88.6064 71.9271 88.546 71.9448 88.4852C72.0927 87.9778 72.4303 87.4453 72.9401 86.8828C75.8173 83.7088 75.0588 80.5815 74.4064 79.4911C74.243 79.2179 74.3313 78.8635 74.6037 78.6995C74.8762 78.5356 75.2295 78.6242 75.3929 78.8974C76.2745 80.371 77.0499 84.064 73.7914 87.659C73.3425 88.1542 73.1288 88.5352 73.049 88.8089C72.9753 89.0621 73.0169 89.211 73.0841 89.3169C73.1649 89.4442 73.3342 89.587 73.6378 89.7118C73.9367 89.8346 74.3219 89.9216 74.7652 89.966C75.653 90.055 76.6866 89.9653 77.5335 89.7418C77.9567 89.6301 78.3112 89.4907 78.5699 89.339C78.8343 89.1839 78.9358 89.053 78.9654 88.9844C78.9776 88.953 78.9926 88.9225 79.0104 88.8932C79.0222 88.8738 79.0351 88.8552 79.0489 88.8376C79.0652 88.8168 79.0828 88.7973 79.1015 88.7791C89.6304 78.0633 92.9939 69.7752 93 63.8095C93.006 58.0558 89.8883 54.345 86.8144 52.563C86.0146 55.2328 84.6722 57.7479 82.9753 59.9339C80.3031 63.376 76.7238 66.0496 72.9238 67.2682C69.113 68.4902 65.0633 68.2501 61.536 65.8243C61.274 65.6441 61.2073 65.285 61.3869 65.0223C61.5666 64.7595 61.9246 64.6925 62.1866 64.8727C65.3703 67.0622 69.0381 67.3028 72.5734 66.1692C76.1195 65.032 79.5147 62.5135 82.0675 59.225C87.1764 52.6439 88.7995 43.1692 81.7688 35.7468C76.046 29.7051 70.8291 28.4562 66.5012 29.1877ZM49.2065 58.041C50.0536 58.041 50.7404 57.3523 50.7404 56.5026C50.7404 55.653 50.0536 54.9642 49.2065 54.9642C48.3593 54.9642 47.6725 55.653 47.6725 56.5026C47.6725 57.3523 48.3593 58.041 49.2065 58.041Z" fill="#A2B9EE"/>
<circle cx="47.3913" cy="71.2609" r="3.13043" fill="#FFC691"/>
<path d="M54.9926 67.9075L49.4919 70.9634C49.2154 71.1171 49.1493 71.4857 49.3551 71.7259L53.0223 76.0042C53.2865 76.3125 53.7885 76.1939 53.887 75.8001L55.7205 68.4658C55.8266 68.0414 55.375 67.6951 54.9926 67.9075Z" fill="#FFC691"/>
<path d="M42.3627 65.9074L46.2419 70.862C46.4369 71.1111 46.3545 71.4764 46.0714 71.6176L41.0292 74.133C40.6659 74.3143 40.2494 74.0098 40.3119 73.6087L41.4749 66.1387C41.5422 65.7065 42.093 65.563 42.3627 65.9074Z" fill="#FFC691"/>
</svg>
