<svg width="390" height="270" viewBox="0 0 390 270" fill="none" xmlns="http://www.w3.org/2000/svg">
<rect width="390" height="270" fill="#D0DEFF"/>
<ellipse cx="211.363" cy="211.094" rx="82.6899" ry="14.3275" transform="rotate(1.09549 211.363 211.094)" fill="#B3CAFF"/>
<path fill-rule="evenodd" clip-rule="evenodd" d="M259.926 208.648V209.059H259.896C258.837 216.353 229.658 222.198 193.817 222.198C157.977 222.198 128.798 216.353 127.739 209.059H127.709V208.648V195.098H193.817H259.926V208.648Z" fill="#EDF2FF"/>
<ellipse cx="194" cy="194.5" rx="66" ry="13.5" fill="#505050"/>
<ellipse cx="194" cy="194.5" rx="66" ry="13.5" fill="#7B96D7"/>
<rect x="185" y="123" width="19" height="71" fill="#E7EEFF"/>
<rect x="130.173" y="122.831" width="4.92731" height="70.6433" fill="#E7EEFF"/>
<ellipse cx="132.637" cy="193.068" rx="2.46366" ry="2.02998" fill="#E7EEFF"/>
<ellipse cx="184" cy="182" rx="5" ry="6" fill="white"/>
<ellipse cx="135.5" cy="173" rx="5.5" ry="8" fill="white"/>
<ellipse cx="242.5" cy="173.5" rx="9.5" ry="4.5" fill="white"/>
<rect x="253.356" y="122.831" width="4.92731" height="70.6433" fill="#E7EEFF"/>
<ellipse cx="255.819" cy="193.068" rx="2.46366" ry="2.02998" fill="#E7EEFF"/>
<ellipse cx="135.511" cy="131.043" rx="7.80158" ry="8.21219" fill="#98B6FC"/>
<ellipse cx="148.24" cy="136.792" rx="7.39097" ry="8.21219" fill="#98B6FC"/>
<circle cx="163.022" cy="140.077" r="8.21219" fill="#98B6FC"/>
<ellipse cx="178.625" cy="140.898" rx="7.39097" ry="8.21219" fill="#98B6FC"/>
<ellipse cx="193.817" cy="140.898" rx="7.80158" ry="8.21219" fill="#98B6FC"/>
<ellipse cx="209.01" cy="140.898" rx="7.39097" ry="8.21219" fill="#98B6FC"/>
<circle cx="224.613" cy="140.077" r="8.21219" fill="#98B6FC"/>
<ellipse cx="239.395" cy="136.792" rx="7.39097" ry="8.21219" fill="#98B6FC"/>
<ellipse cx="252.124" cy="131.043" rx="7.80158" ry="8.21219" fill="#98B6FC"/>
<path fill-rule="evenodd" clip-rule="evenodd" d="M259.926 128.99V129.401H259.896C258.837 136.694 229.658 142.54 193.817 142.54C157.977 142.54 128.798 136.694 127.739 129.401H127.709V128.99V115.44H193.817H259.926V128.99Z" fill="#B1C9FF"/>
<mask id="mask0_266_1412" style="mask-type:alpha" maskUnits="userSpaceOnUse" x="127" y="60" width="133" height="69">
<path fill-rule="evenodd" clip-rule="evenodd" d="M259.942 115.194L193.851 60.4183L127.759 115.194H127.742C127.742 115.198 127.742 115.203 127.742 115.207L127.709 115.235H127.743C127.769 117 129.478 118.748 132.775 120.379C136.097 122.023 140.966 123.517 147.105 124.775C153.244 126.033 160.531 127.031 168.552 127.712C176.573 128.393 185.169 128.744 193.851 128.744C202.532 128.744 211.128 128.393 219.149 127.712C227.17 127.031 234.457 126.033 240.596 124.775C246.735 123.517 251.604 122.023 254.927 120.379C258.223 118.748 259.932 117 259.958 115.235H259.992L259.959 115.207C259.959 115.203 259.959 115.198 259.959 115.194H259.942Z" fill="#858585"/>
</mask>
<g mask="url(#mask0_266_1412)">
<path d="M110.108 128.325L194.863 58.4358L153.621 141.235L110.108 128.325Z" fill="#DAE5FF"/>
<path d="M142.618 161.942L193.524 60.4184L189.47 154.762L142.618 161.942Z" fill="#EDF2FF"/>
<path d="M234.694 165.55L193.799 59.5971L260.892 126.049L234.694 165.55Z" fill="#EDF2FF"/>
<path d="M188.4 172.229L193.574 58.7759L228.272 146.601L188.4 172.229Z" fill="#DAE5FF"/>
<path d="M277.06 141.914L195.87 62.5008L284.495 95.1029L277.06 141.914Z" fill="#DAE5FF"/>
</g>
<ellipse cx="153.004" cy="195.29" rx="21.9605" ry="3.37473" transform="rotate(2.56756 153.004 195.29)" fill="#6B8CD7"/>
<ellipse cx="201.619" cy="201.522" rx="21.9605" ry="3.8012" transform="rotate(2.56756 201.619 201.522)" fill="#6B8CD7"/>
<ellipse cx="238.382" cy="196.478" rx="19.3661" ry="3.8012" transform="rotate(2.56756 238.382 196.478)" fill="#6B8CD7"/>
<path d="M204.491 48.9808C201.263 44.3839 196.152 43.7819 194 44.0555V52.2644C196.69 51.854 202.554 52.1823 204.491 56.7793C206.428 61.3763 213.637 60.0628 217 58.8315V48.9808C214.175 50.8962 207.719 53.5778 204.491 48.9808Z" fill="#D6EDFF"/>
<path fill-rule="evenodd" clip-rule="evenodd" d="M233.238 155.398C236.272 156.257 238.596 158.495 240.118 160.289L240.122 160.294C240.204 160.39 240.321 160.439 240.439 160.438C240.446 160.438 240.454 160.437 240.461 160.437L240.47 160.436C241.886 160.329 244.458 160.557 246.841 161.655C249.213 162.748 251.369 164.688 252.052 168.006C252.96 172.42 254.762 175.686 256.448 177.864C257.29 178.953 258.105 179.772 258.768 180.329C259.099 180.607 259.396 180.823 259.644 180.975C259.767 181.05 259.883 181.113 259.988 181.16C260.086 181.204 260.2 181.245 260.312 181.257C260.385 181.265 260.463 181.277 260.548 181.29C260.843 181.337 261.21 181.394 261.626 181.314C262.178 181.208 262.82 180.881 263.741 180.141C264.075 179.873 264.609 179.761 265.192 179.859C265.769 179.956 266.33 180.25 266.695 180.705C267.051 181.148 267.243 181.77 267.052 182.593C266.857 183.431 266.258 184.493 264.982 185.758L264.974 185.767L264.966 185.775C264.104 186.733 262.349 187.805 259.921 187.802C257.502 187.8 254.364 186.728 250.743 183.309L250.742 183.308C250.658 183.228 250.549 183.191 250.442 183.196L250.404 183.198C249.545 183.239 248.048 183.309 247.09 184.644C246.136 185.974 245.812 188.424 246.858 192.94L246.862 192.956L246.867 192.972C247.113 193.744 247.094 194.764 246.378 195.465C245.67 196.157 244.156 196.668 241.118 196.165C241.15 196.001 241.17 195.828 241.18 195.646C241.22 194.895 241.083 193.961 240.792 192.818C239.928 189.433 241.887 187.496 242.921 186.959C243.121 186.855 243.199 186.608 243.095 186.408C242.991 186.207 242.745 186.129 242.544 186.233C241.253 186.904 239.022 189.186 239.999 193.02C240.283 194.132 240.397 194.973 240.364 195.602C240.33 196.224 240.156 196.601 239.894 196.844C239.625 197.095 239.201 197.26 238.555 197.326C237.91 197.392 237.092 197.354 236.084 197.244C235.125 197.139 234.572 196.868 234.231 196.527C233.888 196.184 233.706 195.718 233.594 195.107C233.52 194.699 233.483 194.27 233.443 193.798L233.442 193.797C233.42 193.541 233.397 193.274 233.367 192.99C233.282 192.208 233.142 191.361 232.796 190.519L232.793 190.512C232.704 190.308 232.468 190.212 232.262 190.297L232.255 190.3C231.922 190.445 231.364 190.681 230.745 190.814C230.119 190.948 229.49 190.964 228.982 190.732L228.978 190.73C228.796 190.646 228.576 190.707 228.464 190.88L228.461 190.884C228.117 191.423 228.12 192.093 228.216 192.645C228.313 193.203 228.518 193.723 228.683 194.046C228.869 194.469 229.018 194.965 229.061 195.439C229.105 195.921 229.038 196.338 228.84 196.643C228.654 196.932 228.311 197.182 227.664 197.262C227.027 197.341 226.115 197.25 224.838 196.87C224.834 196.827 224.828 196.783 224.82 196.739C224.755 196.37 224.557 195.969 224.241 195.533C222.453 193.075 223.23 190.932 223.775 190.214C223.912 190.034 223.876 189.778 223.697 189.641C223.517 189.505 223.26 189.54 223.124 189.72C222.388 190.689 221.555 193.23 223.579 196.014C223.858 196.398 223.98 196.682 224.015 196.881C224.048 197.065 224.007 197.167 223.951 197.236C223.884 197.32 223.754 197.407 223.53 197.472C223.309 197.535 223.03 197.566 222.714 197.564C222.08 197.558 221.357 197.414 220.776 197.191C220.485 197.08 220.246 196.954 220.075 196.828C219.9 196.698 219.838 196.598 219.823 196.547C219.817 196.524 219.808 196.502 219.798 196.48C219.791 196.465 219.783 196.451 219.775 196.437C219.765 196.422 219.754 196.406 219.742 196.392C213.132 188.031 211.395 181.934 211.851 177.732C212.29 173.679 214.779 171.307 217.087 170.289C217.446 172.232 218.201 174.107 219.231 175.778C220.853 178.408 223.175 180.568 225.765 181.72C228.362 182.876 231.241 183.02 233.92 181.584C234.119 181.478 234.194 181.23 234.087 181.031C233.98 180.832 233.733 180.757 233.534 180.864C231.116 182.16 228.507 182.045 226.097 180.973C223.68 179.898 221.476 177.862 219.927 175.349C216.825 170.318 216.41 163.52 221.948 158.836C226.456 155.024 230.238 154.548 233.238 155.398ZM243.229 177.056C242.631 176.991 242.199 176.453 242.264 175.854C242.33 175.256 242.868 174.824 243.466 174.889C244.065 174.955 244.497 175.493 244.431 176.091C244.366 176.69 243.827 177.122 243.229 177.056Z" fill="#456FD0"/>
<path fill-rule="evenodd" clip-rule="evenodd" d="M144.392 153.756C141.358 154.615 139.034 156.853 137.512 158.647L137.508 158.651C137.426 158.748 137.309 158.797 137.191 158.795C137.184 158.795 137.176 158.795 137.169 158.795L137.16 158.794C135.744 158.687 133.172 158.915 130.789 160.013C128.417 161.106 126.261 163.045 125.578 166.364C124.67 170.777 122.868 174.043 121.182 176.222C120.34 177.31 119.525 178.13 118.862 178.687C118.531 178.964 118.234 179.18 117.986 179.332C117.863 179.408 117.747 179.471 117.642 179.517C117.544 179.561 117.43 179.602 117.318 179.615C117.245 179.622 117.167 179.635 117.082 179.648C116.787 179.694 116.42 179.752 116.004 179.672C115.452 179.566 114.81 179.238 113.889 178.499C113.555 178.231 113.021 178.119 112.438 178.217C111.861 178.313 111.3 178.607 110.935 179.062C110.579 179.505 110.387 180.128 110.578 180.95C110.773 181.788 111.372 182.851 112.648 184.116L112.656 184.124L112.664 184.133C113.526 185.09 115.281 186.162 117.709 186.16C120.128 186.157 123.266 185.086 126.887 181.666L126.888 181.665C126.972 181.586 127.081 181.549 127.188 181.554L127.226 181.556C128.085 181.596 129.582 181.667 130.539 183.002C131.494 184.332 131.818 186.781 130.772 191.298L130.768 191.314L130.763 191.33C130.517 192.102 130.536 193.122 131.252 193.822C131.96 194.514 133.474 195.025 136.512 194.523C136.48 194.359 136.46 194.185 136.45 194.004C136.41 193.253 136.547 192.319 136.838 191.175C137.702 187.791 135.743 185.853 134.709 185.316C134.509 185.212 134.431 184.966 134.535 184.765C134.639 184.565 134.885 184.487 135.086 184.591C136.377 185.261 138.608 187.543 137.631 191.377C137.347 192.49 137.233 193.331 137.266 193.96C137.3 194.581 137.474 194.959 137.736 195.202C138.005 195.453 138.428 195.618 139.075 195.684C139.72 195.75 140.538 195.712 141.546 195.601C142.505 195.496 143.058 195.226 143.399 194.885C143.742 194.542 143.924 194.075 144.036 193.464C144.11 193.056 144.147 192.627 144.187 192.156L144.187 192.154C144.209 191.899 144.233 191.631 144.263 191.348C144.348 190.566 144.488 189.719 144.834 188.877L144.837 188.869C144.926 188.666 145.161 188.569 145.368 188.654L145.375 188.657C145.708 188.802 146.266 189.039 146.885 189.172C147.51 189.306 148.139 189.322 148.648 189.09L148.652 189.088C148.834 189.004 149.054 189.065 149.166 189.238L149.169 189.242C149.513 189.78 149.509 190.451 149.414 191.002C149.317 191.56 149.112 192.081 148.946 192.403C148.761 192.827 148.612 193.322 148.569 193.796C148.525 194.279 148.592 194.696 148.789 195.001C148.976 195.29 149.319 195.54 149.966 195.62C150.603 195.699 151.515 195.608 152.792 195.227C152.796 195.184 152.802 195.141 152.81 195.096C152.875 194.728 153.073 194.326 153.389 193.891C155.177 191.433 154.4 189.289 153.855 188.572C153.718 188.392 153.754 188.135 153.933 187.999C154.113 187.862 154.369 187.897 154.506 188.077C155.242 189.047 156.075 191.588 154.05 194.372C153.772 194.755 153.65 195.04 153.615 195.239C153.582 195.423 153.623 195.525 153.679 195.594C153.746 195.677 153.876 195.765 154.1 195.829C154.321 195.893 154.6 195.924 154.916 195.921C155.55 195.915 156.273 195.772 156.854 195.549C157.145 195.438 157.384 195.312 157.555 195.185C157.73 195.056 157.792 194.956 157.807 194.905C157.813 194.882 157.822 194.859 157.832 194.837C157.839 194.823 157.847 194.809 157.855 194.795C157.865 194.779 157.876 194.764 157.888 194.75C164.498 186.389 166.235 180.291 165.779 176.089C165.339 172.037 162.851 169.664 160.543 168.647C160.183 170.589 159.429 172.464 158.399 174.135C156.777 176.766 154.455 178.926 151.865 180.078C149.268 181.233 146.389 181.377 143.71 179.942C143.511 179.835 143.436 179.588 143.543 179.389C143.65 179.19 143.897 179.115 144.096 179.221C146.514 180.517 149.123 180.403 151.533 179.331C153.95 178.256 156.154 176.22 157.703 173.706C160.804 168.676 161.22 161.878 155.682 157.194C151.174 153.382 147.392 152.906 144.392 153.756ZM134.401 175.414C134.999 175.348 135.431 174.81 135.366 174.212C135.3 173.613 134.762 173.181 134.164 173.247C133.565 173.313 133.133 173.851 133.199 174.449C133.264 175.047 133.803 175.479 134.401 175.414Z" fill="#A6D9FF"/>
<path fill-rule="evenodd" clip-rule="evenodd" d="M192.844 161.146C189.81 162.006 187.486 164.244 185.964 166.038L185.96 166.042C185.878 166.139 185.76 166.188 185.643 166.186C185.635 166.186 185.628 166.186 185.621 166.186L185.612 166.185C184.196 166.078 181.624 166.306 179.241 167.404C176.869 168.497 174.713 170.436 174.03 173.755C173.121 178.168 171.32 181.434 169.634 183.613C168.792 184.701 167.977 185.521 167.314 186.077C166.983 186.355 166.686 186.571 166.438 186.723C166.315 186.799 166.199 186.862 166.094 186.908C165.996 186.952 165.882 186.993 165.769 187.006C165.697 187.013 165.619 187.026 165.534 187.039C165.239 187.085 164.872 187.143 164.456 187.063C163.904 186.957 163.262 186.629 162.341 185.89C162.007 185.622 161.473 185.51 160.89 185.608C160.313 185.704 159.752 185.998 159.387 186.453C159.031 186.896 158.839 187.519 159.03 188.341C159.225 189.179 159.824 190.242 161.1 191.507L161.108 191.515L161.116 191.524C161.978 192.481 163.733 193.553 166.16 193.551C168.58 193.548 171.718 192.477 175.339 189.057L175.34 189.056C175.424 188.977 175.533 188.94 175.64 188.945L175.678 188.947C176.536 188.987 178.033 189.058 178.991 190.393C179.946 191.723 180.27 194.172 179.224 198.689L179.22 198.705L179.215 198.721C178.968 199.493 178.988 200.513 179.704 201.213C180.412 201.905 181.926 202.416 184.964 201.914C184.932 201.75 184.912 201.576 184.902 201.395C184.862 200.644 184.999 199.71 185.29 198.566C186.154 195.182 184.195 193.244 183.161 192.707C182.961 192.603 182.883 192.357 182.987 192.156C183.091 191.956 183.337 191.878 183.538 191.982C184.829 192.652 187.06 194.934 186.082 198.768C185.799 199.881 185.685 200.722 185.718 201.351C185.752 201.972 185.926 202.35 186.188 202.593C186.457 202.844 186.88 203.009 187.527 203.075C188.172 203.141 188.99 203.103 189.998 202.992C190.957 202.887 191.509 202.617 191.851 202.276C192.194 201.933 192.376 201.466 192.487 200.855C192.562 200.447 192.599 200.018 192.639 199.547L192.639 199.545C192.661 199.29 192.684 199.022 192.715 198.739C192.8 197.957 192.94 197.11 193.286 196.268L193.289 196.26C193.378 196.057 193.613 195.96 193.82 196.045L193.827 196.048C194.16 196.193 194.718 196.429 195.337 196.563C195.962 196.697 196.591 196.713 197.1 196.481L197.104 196.479C197.286 196.395 197.506 196.456 197.618 196.629L197.621 196.633C197.965 197.171 197.961 197.842 197.866 198.393C197.769 198.951 197.564 199.472 197.398 199.794C197.213 200.218 197.064 200.713 197.021 201.187C196.976 201.669 197.044 202.087 197.241 202.392C197.428 202.681 197.771 202.931 198.418 203.011C199.055 203.089 199.967 202.999 201.244 202.618C201.248 202.575 201.254 202.531 201.262 202.487C201.327 202.118 201.525 201.717 201.841 201.282C203.629 198.824 202.852 196.68 202.307 195.963C202.17 195.783 202.205 195.526 202.385 195.39C202.565 195.253 202.821 195.288 202.958 195.468C203.694 196.438 204.527 198.979 202.502 201.763C202.223 202.146 202.102 202.431 202.067 202.63C202.034 202.814 202.075 202.916 202.131 202.985C202.198 203.068 202.328 203.156 202.552 203.22C202.773 203.284 203.052 203.315 203.368 203.312C204.002 203.306 204.725 203.163 205.306 202.94C205.596 202.829 205.836 202.703 206.007 202.576C206.182 202.446 206.244 202.346 206.259 202.296C206.265 202.273 206.274 202.25 206.284 202.228C206.291 202.214 206.298 202.199 206.307 202.186C206.317 202.17 206.328 202.155 206.339 202.141C212.95 193.78 214.687 187.682 214.231 183.48C213.791 179.428 211.303 177.055 208.994 176.038C208.635 177.98 207.881 179.855 206.851 181.526C205.229 184.157 202.907 186.317 200.317 187.469C197.72 188.624 194.841 188.768 192.162 187.333C191.963 187.226 191.888 186.978 191.995 186.779C192.102 186.581 192.349 186.506 192.548 186.612C194.966 187.908 197.575 187.794 199.985 186.722C202.402 185.647 204.606 183.61 206.155 181.097C209.256 176.067 209.672 169.269 204.134 164.585C199.625 160.773 195.844 160.296 192.844 161.146ZM182.853 182.805C183.451 182.739 183.883 182.201 183.818 181.603C183.752 181.004 183.214 180.572 182.616 180.638C182.017 180.703 181.585 181.242 181.651 181.84C181.716 182.438 182.255 182.87 182.853 182.805Z" fill="#A7C2FF"/>
<path d="M194 61V44" stroke="white" stroke-linecap="round"/>
</svg>
