<svg width="127" height="127" viewBox="0 0 127 127" fill="none" xmlns="http://www.w3.org/2000/svg">
<g filter="url(#filter0_d_296_1450)">
<circle cx="63.5" cy="59.5" r="59.5" fill="#FFE8D3"/>
<ellipse cx="66.5" cy="88" rx="24.5" ry="7" fill="#FCD6B2"/>
<path fill-rule="evenodd" clip-rule="evenodd" d="M70.5012 29.1877C66.126 29.9273 62.5312 32.7103 60.1272 34.9934L60.1212 34.999C59.9915 35.1223 59.8195 35.1731 59.655 35.1528C59.645 35.1515 59.6349 35.15 59.6249 35.1482L59.6128 35.146C57.6481 34.7779 54.0143 34.7026 50.5128 35.8773C47.0271 37.0467 43.7134 39.4364 42.2495 43.9878C40.3027 50.0406 37.2816 54.3461 34.5902 57.1436C33.2452 58.5416 31.9796 59.566 30.9667 60.2453C30.461 60.5845 30.012 60.8418 29.6426 61.0168C29.4581 61.1042 29.2866 61.1743 29.1329 61.2236C28.9883 61.2701 28.8233 61.3102 28.6637 61.3102C28.5614 61.3102 28.4495 61.3154 28.3294 61.3209C27.9091 61.3404 27.3871 61.3645 26.8167 61.1885C26.0608 60.9553 25.2138 60.3968 24.0386 59.2182C23.6124 58.7908 22.8819 58.5513 22.0516 58.599C21.2296 58.6463 20.3995 58.9725 19.8189 59.5547C19.2538 60.1215 18.889 60.9652 19.0306 62.1489C19.1748 63.3543 19.8498 64.9371 21.4411 66.9085L21.4513 66.9212L21.4608 66.9344C22.5206 68.4106 24.8116 70.1843 28.2079 70.5536C31.593 70.9217 36.1471 69.9007 41.7364 65.6592L41.7384 65.6577C41.8682 65.5592 42.0262 65.5244 42.1752 65.5479L42.2276 65.5561C43.4228 65.745 45.5062 66.0742 46.6419 68.0939C47.7738 70.1068 47.8516 73.5935 45.6963 79.7694L45.6885 79.7916L45.679 79.8131C45.2157 80.8585 45.0863 82.2926 45.9813 83.3857C46.8651 84.4649 48.9054 85.4148 53.2322 85.1764C53.213 84.9412 53.2111 84.6952 53.2253 84.4385C53.284 83.3793 53.6187 82.0896 54.2018 80.5301C55.9279 75.9137 53.4851 72.8946 52.1204 71.9822C51.8561 71.8055 51.7846 71.4473 51.9609 71.1822C52.1371 70.917 52.4942 70.8454 52.7586 71.0222C54.4618 72.1609 57.2343 75.7058 55.279 80.9352C54.7116 82.4525 54.4232 83.6147 54.374 84.5025C54.3254 85.3798 54.512 85.9359 54.8402 86.3169C55.1791 86.7105 55.7457 87.0077 56.6403 87.1995C57.5325 87.3909 58.6822 87.4632 60.1091 87.4632C61.4672 87.4632 62.2818 87.1684 62.8111 86.7427C63.3443 86.314 63.6708 85.6872 63.9199 84.847C64.0861 84.2861 64.2036 83.6897 64.3326 83.035L64.333 83.0326C64.4029 82.6777 64.4763 82.3055 64.5626 81.9126C64.8008 80.8285 65.1264 79.6613 65.7398 78.5334L65.7454 78.5234C65.9004 78.2514 66.2448 78.1525 66.5203 78.3032L66.5302 78.3087C66.974 78.5631 67.7179 78.9803 68.5641 79.2621C69.4181 79.5466 70.2957 79.6656 71.0422 79.4181L71.0482 79.4161C71.3155 79.3264 71.6149 79.4452 71.7446 79.7054L71.7477 79.7118C72.1475 80.5198 72.0393 81.4605 71.8211 82.2194C71.6004 82.9873 71.2337 83.6865 70.9526 84.1131C70.6277 84.6789 70.3442 85.3514 70.2107 86.0097C70.075 86.6794 70.1058 87.275 70.335 87.7335C70.5521 88.1679 70.9933 88.5712 71.886 88.7827C72.7652 88.991 74.0556 89.0038 75.9 88.6663C75.9121 88.6064 75.9271 88.546 75.9448 88.4852C76.0927 87.9778 76.4303 87.4453 76.9401 86.8828C79.8173 83.7088 79.0588 80.5815 78.4064 79.4911C78.243 79.2179 78.3313 78.8635 78.6037 78.6995C78.8762 78.5356 79.2295 78.6242 79.3929 78.8974C80.2745 80.371 81.0499 84.064 77.7914 87.659C77.3425 88.1542 77.1288 88.5352 77.049 88.8089C76.9753 89.0621 77.0169 89.211 77.0841 89.3169C77.1649 89.4442 77.3342 89.587 77.6378 89.7118C77.9367 89.8346 78.3219 89.9216 78.7652 89.966C79.653 90.055 80.6866 89.9653 81.5335 89.7418C81.9567 89.6301 82.3112 89.4907 82.5699 89.339C82.8343 89.1839 82.9358 89.053 82.9654 88.9844C82.9776 88.953 82.9926 88.9225 83.0104 88.8932C83.0222 88.8738 83.0351 88.8552 83.0489 88.8376C83.0652 88.8168 83.0828 88.7973 83.1015 88.7791C93.6304 78.0633 96.9939 69.7752 97 63.8095C97.006 58.0558 93.8883 54.345 90.8144 52.563C90.0146 55.2328 88.6722 57.7479 86.9753 59.9339C84.3031 63.376 80.7238 66.0496 76.9238 67.2682C73.113 68.4902 69.0633 68.2501 65.536 65.8243C65.274 65.6441 65.2073 65.285 65.3869 65.0223C65.5666 64.7595 65.9246 64.6925 66.1866 64.8727C69.3703 67.0622 73.0381 67.3028 76.5734 66.1692C80.1195 65.032 83.5147 62.5135 86.0675 59.225C91.1764 52.6439 92.7995 43.1692 85.7688 35.7468C80.046 29.7051 74.8291 28.4562 70.5012 29.1877ZM53.2065 58.041C54.0536 58.041 54.7404 57.3523 54.7404 56.5026C54.7404 55.653 54.0536 54.9642 53.2065 54.9642C52.3593 54.9642 51.6725 55.653 51.6725 56.5026C51.6725 57.3523 52.3593 58.041 53.2065 58.041Z" fill="#FAB77A"/>
<path d="M56.9467 38.1182C57.5577 34.2756 57.4995 26.131 52.3787 24.2932" stroke="#B4DFB3" stroke-linecap="round"/>
<path d="M45.008 20.8938C53.4953 20.2104 60.1191 23.2325 56.6782 28.6437C54.7435 31.6862 47.1264 26.3493 45.008 20.8938Z" fill="#B4DFB3"/>
<path d="M66.9117 25.1217C64.7856 30.0262 61.1562 32.8046 59.1734 29.301C58.0585 27.3311 63.2636 24.6854 66.9117 25.1217Z" fill="#B4DFB3"/>
<path d="M57.3262 34.2316C57.866 32.6548 59.4717 29.3853 61.5752 28.9217" stroke="#B4DFB3" stroke-linecap="round"/>
</g>
<defs>
<filter id="filter0_d_296_1450" x="0" y="0" width="127" height="127" filterUnits="userSpaceOnUse" color-interpolation-filters="sRGB">
<feFlood flood-opacity="0" result="BackgroundImageFix"/>
<feColorMatrix in="SourceAlpha" type="matrix" values="0 0 0 0 0 0 0 0 0 0 0 0 0 0 0 0 0 0 127 0" result="hardAlpha"/>
<feOffset dy="4"/>
<feGaussianBlur stdDeviation="2"/>
<feComposite in2="hardAlpha" operator="out"/>
<feColorMatrix type="matrix" values="0 0 0 0 0 0 0 0 0 0 0 0 0 0 0 0 0 0 0.25 0"/>
<feBlend mode="normal" in2="BackgroundImageFix" result="effect1_dropShadow_296_1450"/>
<feBlend mode="normal" in="SourceGraphic" in2="effect1_dropShadow_296_1450" result="shape"/>
</filter>
</defs>
</svg>
