<svg width="62" height="36" viewBox="0 0 62 36" fill="none" xmlns="http://www.w3.org/2000/svg">
<path d="M32.0137 0.875C28.5706 0.876836 25.266 2.23158 22.8125 4.64718V0.875H21.0625V7.875H28.0625V6.125H23.8126C24.8734 5.01932 26.1466 4.13936 27.5559 3.53792C28.9652 2.93648 30.4814 2.62596 32.0137 2.625C38.2781 2.625 43.375 7.72187 43.375 13.9863C43.375 20.2508 38.2781 25.3477 32.0137 25.3477C25.7492 25.3477 20.6523 20.2508 20.6523 13.9863H18.9023C18.9023 16.5795 19.6713 19.1145 21.112 21.2706C22.5527 23.4268 24.6004 25.1073 26.9962 26.0996C29.392 27.092 32.0282 27.3516 34.5716 26.8457C37.1149 26.3398 39.4511 25.0911 41.2848 23.2574C43.1184 21.4238 44.3672 19.0876 44.8731 16.5442C45.379 14.0009 45.1193 11.3646 44.127 8.96884C43.1346 6.57305 41.4541 4.52534 39.2979 3.08465C37.1418 1.64396 34.6068 0.874997 32.0137 0.875Z" fill="#456FD0"/>
<path d="M31.125 6.12231L31.0957 15.75H38.125V14H32.8511L32.875 6.12767L31.125 6.12231Z" fill="#456FD0"/>
<path d="M0 34.5H61.5183" stroke="#456FD0" stroke-width="3"/>
</svg>
