<svg width="113" height="136" viewBox="0 0 113 136" fill="none" xmlns="http://www.w3.org/2000/svg">
<g filter="url(#filter0_f_200_1529)">
<ellipse cx="79.5" cy="125.5" rx="25" ry="2.5" fill="#A2B9EE"/>
</g>
<path fill-rule="evenodd" clip-rule="evenodd" d="M58.7205 8.29751C62.1172 5.12087 67.1674 1.27853 73.2939 0.258623C79.333 -0.746723 86.6488 0.955792 94.715 9.34237C104.571 19.59 102.314 32.6759 95.1226 41.7998C91.5297 46.3579 86.7567 49.841 81.7848 51.4112C76.8328 52.9751 71.7158 52.639 67.2768 49.6325C66.7931 49.3049 66.1321 49.4266 65.8004 49.9044C65.4687 50.3822 65.592 51.0351 66.0757 51.3627C71.149 54.7989 76.9711 55.134 82.4317 53.4094C87.8724 51.6912 92.9853 47.9262 96.7985 43.0886C99.1557 40.0981 101.036 36.6646 102.189 33.0161C106.393 35.5237 110.575 40.5813 110.567 48.349C110.558 56.5842 105.842 68.0949 90.9406 83.0317C90.8834 83.0865 90.8318 83.1482 90.7875 83.2161C90.7491 83.2748 90.7172 83.3364 90.6919 83.4C90.6753 83.4327 90.579 83.5785 90.235 83.7772C89.8937 83.9744 89.4138 84.1619 88.8278 84.3142C87.6547 84.6191 86.2192 84.7417 84.9912 84.6204C84.5838 84.5802 84.2169 84.5148 83.9007 84.4285C83.5178 84.128 83.126 83.8383 82.7259 83.5598C82.7288 83.4936 82.742 83.4136 82.7709 83.3159C82.8693 82.9831 83.1456 82.4833 83.7688 81.8062C88.4694 76.6989 87.3666 71.424 86.0679 69.2861C85.7662 68.7894 85.1138 68.6283 84.6109 68.9263C84.108 69.2244 83.9449 69.8687 84.2466 70.3655C85.1222 71.8069 86.1936 76.0529 82.1972 80.395C81.575 81.071 81.1177 81.73 80.8558 82.3756C78.4743 81.0092 75.8505 80.0176 73.0646 79.4811C73.0704 79.4504 73.0765 79.4195 73.0829 79.3884C73.265 78.5035 73.6536 77.5921 74.1025 76.8207C74.5118 76.2077 75.041 75.2122 75.3609 74.1162C75.6755 73.0381 75.8478 71.6548 75.2442 70.4468C75.1994 70.3541 75.1421 70.2704 75.0749 70.1969C74.8606 69.9619 74.55 69.8367 74.2349 69.8516C74.1351 69.8563 74.0349 69.875 73.9371 69.9088C72.9537 70.2278 71.7729 70.0791 70.5849 69.6894C69.4136 69.3051 68.3797 68.7353 67.7516 68.3809L67.7284 68.368C67.2196 68.0939 66.5838 68.2736 66.2978 68.7685L66.2844 68.7923C65.4006 70.3946 64.9336 72.0478 64.5945 73.5681C64.4692 74.13 64.3641 74.6556 64.2646 75.1535L64.2641 75.1557C64.0832 76.0611 63.9205 76.8746 63.6879 77.6474C63.4429 78.4614 63.1496 79.1096 62.7521 79.6152C61.1387 79.97 59.5828 80.4783 58.1005 81.1239C56.2792 81.1103 54.8087 81.0058 53.6576 80.7627C52.4145 80.5001 51.6716 80.1019 51.2412 79.6096C50.8306 79.1401 50.5734 78.4334 50.64 77.2495C50.7076 76.0464 51.1067 74.4508 51.9074 72.3417C54.7281 64.9122 50.7275 59.8526 48.2408 58.2151C47.7528 57.8938 47.0934 58.024 46.7681 58.5061C46.4427 58.9881 46.5746 59.6394 47.0626 59.9607C48.9244 61.1867 52.3162 65.2901 49.9187 71.6051C49.0888 73.7911 48.6045 75.6182 48.5193 77.1331C48.5036 77.4118 48.5014 77.6829 48.5134 77.9461C42.5792 78.2286 39.849 76.9183 38.6883 75.5223C37.5017 74.0951 37.6585 72.2022 38.2945 70.7887L38.3121 70.7496L38.3264 70.7092C41.3847 62.0784 41.3096 57.1193 39.6487 54.2104C37.9798 51.2874 34.9199 50.8118 33.2306 50.5492L33.1435 50.5356L33.1244 50.5328C32.9855 50.5133 32.849 50.5214 32.7204 50.5529C32.5847 50.586 32.4533 50.6463 32.3347 50.735C24.4476 56.6304 18.0526 58.0272 13.3317 57.5216C8.59041 57.0139 5.4048 54.5764 3.94165 52.5692L3.92411 52.5451L3.90523 52.5221C1.66618 49.7901 0.738545 47.6228 0.541639 46.002C0.349526 44.4207 0.843275 43.3181 1.58856 42.582C2.36238 41.8176 3.47874 41.3818 4.59291 41.3187C5.72254 41.2548 6.68074 41.5786 7.22092 42.1122C8.89719 43.7679 10.1322 44.5803 11.2606 44.9233C12.1157 45.1831 12.9187 45.1459 13.5152 45.1182L13.5156 45.1181C13.6768 45.1106 13.8229 45.1039 13.951 45.1039C14.2149 45.1039 14.4772 45.0392 14.6914 44.9715C14.9223 44.8984 15.1757 44.7961 15.4439 44.671C15.9812 44.4203 16.6282 44.0547 17.3526 43.5762C18.8037 42.6178 20.611 41.1762 22.5289 39.213C26.3675 35.2836 30.6707 29.2417 33.4427 20.7536C35.4877 14.492 40.112 11.2026 44.999 9.58784C49.9144 7.96372 55.0197 8.06792 57.7704 8.57466C57.9402 8.60814 58.1168 8.60048 58.2839 8.55123C58.4164 8.51216 58.543 8.4469 58.6552 8.35524C58.6777 8.3369 58.6995 8.31765 58.7205 8.29751ZM50.913 38.1491C50.913 39.3351 49.9396 40.2966 48.7388 40.2966C47.538 40.2966 46.5646 39.3351 46.5646 38.1491C46.5646 36.963 47.538 36.0015 48.7388 36.0015C49.9396 36.0015 50.913 36.963 50.913 38.1491Z" fill="url(#paint0_linear_200_1529)"/>
<path fill-rule="evenodd" clip-rule="evenodd" d="M68.0922 127C80.9512 127 91.3755 116.576 91.3755 103.717C91.3755 98.917 89.9232 94.4565 87.434 90.7506L81.7881 97.3376C81.6572 97.4903 81.6305 97.7066 81.7205 97.8866L85.7353 105.916C85.9565 106.359 85.4695 106.819 85.04 106.574L78.1881 102.658C78.0113 102.557 77.791 102.574 77.631 102.7L70.9119 107.982C70.5839 108.24 70.1028 108.007 70.1028 107.589V99.6495C70.1028 99.4523 69.987 99.2735 69.8069 99.193L62.2099 95.7962C61.7616 95.5957 61.8407 94.9366 62.3237 94.848L71.7336 93.1207C71.9709 93.0771 72.1433 92.8702 72.1433 92.6289V82.9919C72.1433 82.4749 72.8321 82.2979 73.0814 82.7509L78.5339 92.6593C78.6553 92.88 78.922 92.9759 79.1562 92.8831L86.8003 89.8535C82.5576 84.1375 75.7575 80.4333 68.0922 80.4333C55.2331 80.4333 44.8088 90.8577 44.8088 103.717C44.8088 116.576 55.2331 127 68.0922 127Z" fill="url(#paint1_linear_200_1529)"/>
<defs>
<filter id="filter0_f_200_1529" x="46.5" y="115" width="66" height="21" filterUnits="userSpaceOnUse" color-interpolation-filters="sRGB">
<feFlood flood-opacity="0" result="BackgroundImageFix"/>
<feBlend mode="normal" in="SourceGraphic" in2="BackgroundImageFix" result="shape"/>
<feGaussianBlur stdDeviation="4" result="effect1_foregroundBlur_200_1529"/>
</filter>
<linearGradient id="paint0_linear_200_1529" x1="55.5333" y1="-1.47094e-06" x2="93.5" y2="85" gradientUnits="userSpaceOnUse">
<stop stop-color="#A2B9EE"/>
<stop offset="1" stop-color="#5B79BD"/>
</linearGradient>
<linearGradient id="paint1_linear_200_1529" x1="60" y1="80" x2="82" y2="136.5" gradientUnits="userSpaceOnUse">
<stop stop-color="#A6D9FF"/>
<stop offset="1" stop-color="#55B3F9"/>
</linearGradient>
</defs>
</svg>
