<svg width="307" height="227" viewBox="0 0 307 227" fill="none" xmlns="http://www.w3.org/2000/svg">
<path d="M243.453 50.3223C232.133 45.0018 224.161 54.4763 221.591 59.8786C208.719 62.6132 207.974 69.6089 209.21 72.7649L303.678 72.6747C303.374 57.5148 289.197 55.4776 282.146 56.3539C279.095 45.5071 269.143 46.3016 264.549 48.0548C254.484 38.4851 246.291 45.5791 243.453 50.3223Z" fill="#E4F4FF"/>
<path d="M41.0166 201.215C33.2707 197.574 27.8161 204.057 26.0571 207.754C17.2492 209.625 16.7396 214.412 17.5857 216.572L82.227 216.51C82.0192 206.136 72.3178 204.742 67.4932 205.342C65.4059 197.92 58.5961 198.464 55.4521 199.663C48.565 193.115 42.9588 197.969 41.0166 201.215Z" fill="#E4F4FF"/>
<path d="M166.065 88.0991C154.061 80.4866 144.472 88.0991 141.178 92.8569C134.151 90.8074 130.93 97.6147 130.198 101.275H229.747C222.427 88.0991 212.301 91.8809 208.153 95.4188C192.636 67.0183 173.629 78.7054 166.065 88.0991Z" fill="#E4F4FF"/>
<path d="M25.3176 7.48982C16.844 2.09018 10.0754 7.48982 7.75029 10.8646C2.7901 9.41084 0.516686 14.2394 0 16.8353H70.2692C65.1024 7.48982 57.9549 10.1723 55.027 12.6818C44.0733 -7.46302 30.6567 0.826806 25.3176 7.48982Z" fill="#E4F4FF"/>
<path fill-rule="evenodd" clip-rule="evenodd" d="M174.515 136.518C169.085 133.502 162.741 133.366 158.105 133.737C158.076 133.74 158.047 133.741 158.018 133.742C157.873 133.744 157.733 133.716 157.605 133.664C157.444 133.598 157.301 133.494 157.189 133.363C155.352 131.254 151.421 127.994 146.563 126.205C141.733 124.426 136.067 124.122 130.568 127.749C123.115 132.666 115.986 134.716 110.536 135.402C107.813 135.744 105.501 135.747 103.769 135.594C102.904 135.517 102.17 135.401 101.593 135.263C101.306 135.193 101.044 135.116 100.817 135.029C100.608 134.949 100.362 134.836 100.155 134.672C100.055 134.592 99.9364 134.506 99.8055 134.412C99.3214 134.062 98.6698 133.591 98.1624 132.856C97.4928 131.885 97.032 130.48 96.7509 128.141C96.6603 127.387 96.112 126.537 95.1881 125.884C94.2769 125.24 93.1319 124.886 92.0505 125.002C91.009 125.115 89.9362 125.67 89.1022 127.027C88.2473 128.418 87.624 130.692 87.6756 134.224L87.6761 134.254L87.6748 134.283C87.5703 136.765 88.5461 140.656 91.9405 144.005C95.3204 147.339 101.195 150.227 111.037 150.523C111.185 150.528 111.326 150.562 111.452 150.621C111.573 150.676 111.684 150.755 111.781 150.856L111.794 150.871L111.854 150.935C113.013 152.193 115.111 154.47 114.598 157.796C114.087 161.107 111.058 165.034 103.292 169.885L103.256 169.908L103.217 169.927C101.84 170.638 100.539 172.021 100.579 173.877C100.618 175.692 101.939 178.417 106.759 181.89C106.914 181.677 107.084 181.466 107.27 181.258C108.28 180.125 109.796 178.997 111.806 177.803C117.614 174.353 117.514 169.03 116.82 166.912C116.638 166.356 116.94 165.765 117.495 165.59C118.05 165.415 118.647 165.724 118.829 166.279C119.755 169.109 119.737 175.559 112.904 179.617C110.965 180.769 109.659 181.769 108.857 182.669C108.068 183.554 107.829 184.267 107.858 184.89C107.889 185.543 108.222 186.318 109.032 187.297C109.838 188.273 111.034 189.353 112.613 190.609C114.093 191.786 115.2 192.151 116.083 192.152C116.975 192.154 117.832 191.789 118.821 191.103C119.484 190.643 120.118 190.107 120.823 189.512L120.825 189.51C121.212 189.182 121.622 188.836 122.07 188.475C123.281 187.496 124.676 186.493 126.365 185.789L126.391 185.779C126.922 185.57 127.532 185.825 127.759 186.356L127.77 186.381C128.04 187.049 128.495 188.139 129.172 189.168C129.859 190.213 130.691 191.064 131.659 191.427C131.757 191.461 131.847 191.509 131.928 191.568C132.184 191.752 132.349 192.043 132.37 192.361C132.377 192.46 132.37 192.561 132.347 192.662C132.068 193.983 131.072 194.958 130.154 195.606C129.222 196.265 128.188 196.714 127.486 196.939C126.654 197.264 125.783 197.735 125.089 198.314C124.38 198.907 123.94 199.541 123.811 200.17C123.692 200.752 123.8 201.509 124.571 202.483C125.32 203.43 126.667 204.536 128.905 205.756C128.935 205.733 128.966 205.711 128.997 205.689C129.644 205.235 130.522 204.943 131.596 204.776C137.426 203.865 139.231 199.875 139.443 198.202C139.516 197.626 140.045 197.223 140.624 197.303C141.203 197.383 141.614 197.915 141.54 198.491C141.226 200.973 138.805 205.788 131.947 206.858C131.038 207 130.511 207.22 130.226 207.419C129.974 207.595 129.935 207.735 129.925 207.831C129.911 207.973 129.951 208.226 130.166 208.605C130.375 208.977 130.71 209.393 131.152 209.822C132.037 210.681 133.237 211.479 134.345 211.97C134.899 212.216 135.391 212.368 135.781 212.426C136.174 212.485 136.34 212.431 136.373 212.415C136.432 212.381 136.496 212.353 136.562 212.331C136.639 212.305 136.718 212.289 136.797 212.282C157.757 209.869 168.614 203.796 173.747 197.357C178.589 191.283 178.465 184.722 176.736 180.142C173.562 182.28 169.953 183.796 166.247 184.669C160.251 186.081 153.906 185.845 148.578 183.803C143.231 181.753 138.883 177.866 137.052 172.019C136.878 171.461 137.188 170.874 137.745 170.706C138.302 170.539 138.895 170.855 139.069 171.413C140.672 176.529 144.467 179.977 149.316 181.836C154.184 183.702 160.088 183.948 165.737 182.617C177.046 179.954 186.958 171.118 185.624 156.962C184.532 145.377 179.867 139.491 174.515 136.518ZM130.373 152.566C131.313 153.313 132.673 153.167 133.412 152.239C134.15 151.311 133.987 149.952 133.047 149.205C132.107 148.457 130.747 148.604 130.008 149.532C129.27 150.46 129.433 151.818 130.373 152.566Z" fill="url(#paint0_linear_200_1582)"/>
<path d="M71.9999 93L89.9999 131M89.9999 131L79.4999 61M89.9999 131L98.4999 80" stroke="#FFEAD7" stroke-width="2" stroke-linecap="round"/>
<circle cx="76.4056" cy="55.4686" r="17.5" transform="rotate(-9.3546 76.4056 55.4686)" fill="#FFE2E0"/>
<circle cx="76.4056" cy="55.4686" r="17.5" transform="rotate(-9.3546 76.4056 55.4686)" fill="#FFE2E0"/>
<circle cx="76.4056" cy="55.4686" r="17.5" transform="rotate(-9.3546 76.4056 55.4686)" fill="url(#paint1_linear_200_1582)"/>
<circle cx="64.8503" cy="80.6823" r="17.5" transform="rotate(-9.3546 64.8503 80.6823)" fill="#FFE2E0"/>
<circle cx="64.8503" cy="80.6823" r="17.5" transform="rotate(-9.3546 64.8503 80.6823)" fill="#FFE2E0"/>
<circle cx="64.8503" cy="80.6823" r="17.5" transform="rotate(-9.3546 64.8503 80.6823)" fill="url(#paint2_linear_200_1582)"/>
<circle cx="94.4514" cy="75.8061" r="17.5" transform="rotate(-9.3546 94.4514 75.8061)" fill="#FFE2E0"/>
<circle cx="94.4514" cy="75.8061" r="17.5" transform="rotate(-9.3546 94.4514 75.8061)" fill="#FFE2E0"/>
<circle cx="94.4514" cy="75.8061" r="17.5" transform="rotate(-9.3546 94.4514 75.8061)" fill="url(#paint3_linear_200_1582)"/>
<defs>
<linearGradient id="paint0_linear_200_1582" x1="160.776" y1="125.259" x2="137.575" y2="215.416" gradientUnits="userSpaceOnUse">
<stop stop-color="#A2B9EE"/>
<stop offset="1" stop-color="#5B79BD"/>
</linearGradient>
<linearGradient id="paint1_linear_200_1582" x1="70.4056" y1="43.4686" x2="93.4056" y2="79.9686" gradientUnits="userSpaceOnUse">
<stop stop-color="#A2B9EE"/>
<stop offset="1" stop-color="#6E86BE"/>
</linearGradient>
<linearGradient id="paint2_linear_200_1582" x1="57.3503" y1="63.1823" x2="74.3503" y2="98.1823" gradientUnits="userSpaceOnUse">
<stop stop-color="#FFC896"/>
<stop offset="1" stop-color="#FFAC60"/>
</linearGradient>
<linearGradient id="paint3_linear_200_1582" x1="85.4514" y1="58.3061" x2="109.451" y2="97.8061" gradientUnits="userSpaceOnUse">
<stop stop-color="#A6D9FF"/>
<stop offset="1" stop-color="#73B0DC"/>
</linearGradient>
</defs>
</svg>
